<svg width="53" height="77" viewBox="0 0 53 77" fill="none" xmlns="http://www.w3.org/2000/svg">
<path fill-rule="evenodd" clip-rule="evenodd" d="M36.8554 37.8185C36.8191 37.8982 36.7823 37.9767 36.7458 38.0568C36.1452 38.1363 36.0443 38.8132 35.7647 39.2772C35.5674 39.5772 35.4933 40.0808 35.0313 39.9428C34.9787 39.9258 34.9247 39.9083 34.8715 39.8914C34.8646 39.9816 34.8579 40.0713 34.8517 40.1614C34.6151 40.6085 34.3781 41.0544 34.1415 41.5015C34.105 41.5095 34.0681 41.5269 34.0331 41.5227C34.0002 41.519 33.9412 41.4792 33.942 41.4778C34.1723 40.7667 34.2216 40.0645 33.8703 39.1919C33.6095 39.5267 33.3089 39.7511 33.2161 40.0652C33.0348 40.6783 32.7246 41.0225 32.2411 41.2408C32.0518 41.326 31.9124 41.5804 31.7498 41.7582C31.6619 41.8366 31.5743 41.9145 31.4864 41.9937C31.5732 41.9143 31.6601 41.8357 31.7469 41.7563C31.741 41.9678 31.7847 42.205 31.7181 42.3831C31.6211 42.6447 31.4449 42.8635 31.3024 43.1009C31.1839 42.8943 31.0655 42.6884 30.9455 42.4805C30.6891 42.9078 30.4558 43.2401 30.2763 43.6111C30.0904 43.9949 30.0354 44.5368 29.7785 44.7873C29.494 45.0656 28.9789 45.0121 29.0523 45.7546C29.4127 45.8759 29.7641 45.9929 30.1154 46.1111C29.9568 46.4185 29.7982 46.726 29.64 47.033C29.1704 46.845 29.1384 45.8503 28.3871 45.985C28.631 46.4731 28.8256 46.8629 29.0203 47.2535C28.9769 47.2885 28.9339 47.3226 28.8907 47.3572C28.7703 47.2622 28.6506 47.1671 28.5299 47.0725C28.3814 47.085 28.2321 47.0975 28.0836 47.11C28.1493 47.2471 28.2157 47.384 28.2811 47.5208C28.4016 47.6349 28.5213 47.7492 28.6414 47.863C28.4403 48.1299 28.239 48.3964 28.0383 48.6636C27.6094 48.1661 27.5593 47.0689 26.6438 47.3516C26.4378 48.2239 26.5596 48.9414 27.2679 49.3813C27.0948 49.5526 26.9214 49.7235 26.7483 49.8948C26.3484 48.7905 26.3521 48.7966 25.6155 49.4685C25.5187 49.5568 25.3517 49.601 25.2337 49.5711C24.6363 49.4226 24.7072 49.9985 24.6094 50.3946C24.6169 50.526 24.6246 50.6582 24.6321 50.7896C24.5526 50.9308 24.4735 51.0722 24.3943 51.2129C24.0384 50.8547 23.7057 50.5511 23.2699 51.142C23.1193 51.346 22.8078 51.3651 22.5758 51.4848C21.366 52.115 21.2752 52.6541 22.1512 53.9855C21.8858 54.7667 21.2989 55.0979 20.7504 55.483C20.654 54.9411 20.3314 55.1735 20.0706 55.1953C20.5496 54.7484 21.0292 54.3013 21.5151 53.8486C21.3773 53.4611 21.2389 53.0717 21.0779 52.6182C20.7568 53.3146 20.4693 53.9367 20.1823 54.5599C20.0783 54.5135 19.898 54.4021 19.8807 54.432C19.424 55.2055 18.2406 55.0141 18.1854 56.328C18.1816 56.416 18.0402 56.5077 17.9529 56.5803C17.1584 57.244 17.1583 57.2432 17.8567 57.9952C17.1654 58.6309 16.4953 59.306 15.777 59.8908C14.9527 60.5627 14.0893 61.1637 13.2311 61.7714C13.1251 61.8472 12.9501 61.776 12.807 61.7727C13.2484 61.2386 13.6896 60.7049 14.1378 60.1633C14.0288 59.9418 13.938 59.7591 13.7996 59.4773C13.3403 60.0756 12.5962 60.0764 12.4229 60.9537C11.7491 60.587 11.7416 60.5917 11.5375 61.5635C11.5069 61.6029 11.4794 61.645 11.4545 61.6902C11.2244 61.7647 10.9942 61.8392 10.7644 61.914C10.7322 61.9725 10.6959 62.0274 10.6553 62.0777C10.5959 62.0376 10.5361 62.0008 10.4745 61.9672C10.2868 61.7281 10.0992 61.4898 9.78473 61.0905C9.7391 61.5245 9.71577 61.7468 9.69281 61.9693C9.53939 62.1454 9.38542 62.3223 9.23182 62.4995C8.97583 62.3272 8.71974 62.1541 8.61369 62.0832C7.98395 62.311 7.49496 62.4876 6.94328 62.6871C6.91421 62.8738 6.86463 63.1839 6.81542 63.4944L6.8083 63.4909C6.69317 63.4898 6.57831 63.4883 6.46253 63.4874C6.37968 63.6312 6.29712 63.7746 6.21427 63.9184C6.16965 63.89 6.1289 63.8552 6.09176 63.8144C6.05214 63.7346 6.01251 63.6547 5.9726 63.5753C6.38378 62.6693 6.34294 61.7928 5.87661 60.944C6.25572 60.7412 6.63465 60.5397 6.99831 60.3445C6.92578 60.2148 6.7386 60.0151 6.70603 59.7815C6.68165 59.6032 6.85431 59.3827 6.95973 59.1321C6.7014 59.0923 6.55821 59.0699 6.4153 59.0469C7.22295 58.4544 8.02823 57.8563 8.83985 57.2716C9.31017 56.9332 9.79174 56.6182 10.2679 56.2921C10.2141 56.6601 10.1603 57.0281 10.0679 57.6592C10.62 57.0818 11.0354 56.6478 11.4504 56.2142L11.4401 56.2065C11.6112 56.2785 11.7829 56.3504 11.8971 56.3981C12.0399 56.1227 12.2004 55.9098 12.2624 55.6617C12.3145 55.4537 12.2525 55.2038 12.241 54.9725C12.9456 54.4068 13.6622 53.8615 14.3523 53.27C15.2542 52.4964 16.1236 51.6677 17.0295 50.9018C17.3821 50.604 17.7978 50.4189 18.1783 50.1678C18.3217 50.0729 18.4708 49.9617 18.5783 49.8151C18.8127 49.4964 18.9883 49.1021 19.2488 48.8244C19.8814 48.1513 20.5351 47.5034 21.209 46.8919C21.5938 46.5433 22.0213 46.1399 22.5445 46.6858C22.4729 46.496 22.4003 46.3069 22.2975 46.0348C23.0377 45.3023 23.6352 44.3133 24.6139 43.9175C24.5586 44.0298 24.47 44.1353 24.4547 44.2548C24.4306 44.4523 24.4398 44.6617 24.471 44.8573C24.4758 44.8906 24.7432 44.9038 24.7474 44.8863C24.7924 44.6557 24.8364 44.4164 24.8259 44.1832C24.8217 44.0895 24.6836 44.0057 24.6069 43.9177C25.085 43.4338 25.5624 42.9501 26.0405 42.4663C26.1268 43.289 26.1268 43.289 26.6172 42.8452C26.4757 42.6471 26.3353 42.45 26.1946 42.2527C27.5934 40.5741 29.0855 39.0196 30.343 37.156C31.1117 36.016 32.1052 35.1063 32.9553 34.0408C33.3632 33.53 33.6603 32.8888 34.0284 32.3263C34.8079 31.1329 35.6793 30.0453 36.3575 28.7278C36.6904 28.0809 37.2613 27.5413 37.4405 26.7627C37.5934 26.0961 38.4565 26.182 38.3565 25.333C39.4597 23.8535 39.9115 21.7999 41.2297 20.5101C41.3683 20.4768 41.5069 20.4427 41.6451 20.4091C41.5811 20.3833 41.5171 20.3584 41.4561 20.3353C41.6166 20.4135 41.7744 20.4893 41.9316 20.5661C41.9811 20.4932 42.03 20.4204 42.0795 20.3475C42.1198 20.2821 42.1578 20.216 42.1938 20.1474C42.4821 20.5433 42.7698 20.9393 43.077 21.3612C43.3514 21.2927 43.6549 21.2169 43.9374 21.1464C44.2327 21.9375 43.5255 21.6601 43.5099 21.7234C43.5483 22.461 43.5717 22.9125 43.6001 23.4641C43.2145 23.3388 42.9864 23.2649 42.7495 23.1875C42.6553 23.4587 42.5838 23.6642 42.5017 23.9009C42.6976 23.8164 42.8502 23.7502 43.1387 23.6255C42.9903 24.3508 43.102 24.9488 42.5848 25.2406C41.9628 25.5909 41.9587 26.2601 41.9522 26.9352C42.2215 27.5096 42.6412 27.5329 43.1053 27.3929C43.0294 27.533 42.953 27.6727 42.8765 27.8136C42.5287 28.1639 42.1811 28.5137 41.833 28.8644C41.7736 28.7946 41.7148 28.7246 41.656 28.6546C41.8141 28.3057 41.9726 27.9571 42.1719 27.5173C41.192 27.4466 41.497 28.6047 40.9 28.9834C41.2914 29.2641 41.5321 29.437 41.7731 29.6103C41.7332 29.839 41.7354 30.0974 41.6439 30.2902C41.509 30.5755 41.3074 30.8156 41.1342 31.0753C41.0748 31.0275 41.0118 30.9856 40.9466 30.9503C40.5267 30.5798 40.7175 30.1629 40.9956 29.7889C40.27 29.4363 40.4563 30.2374 40.2288 30.4687C39.966 30.7359 39.6828 30.9736 39.4085 31.2242C39.2743 31.2225 39.1402 31.2194 39.0062 31.2172C39.0159 31.2931 39.0251 31.3679 39.0349 31.4439C39.1606 31.385 39.2867 31.3256 39.4138 31.2664C39.4068 31.5861 39.4 31.9066 39.3933 32.2258C38.8157 32.7622 38.1139 33.1668 37.9925 34.186C37.6711 34.5547 37.35 34.9238 37.0291 35.2924C36.9598 35.0374 36.8905 34.7824 36.7781 34.3679C36.505 34.9526 36.646 35.2245 36.8968 35.4631L37.0028 35.4822C36.5688 35.7361 36.9524 36.143 36.872 36.4633C36.6838 36.3526 36.4946 36.2418 36.2314 36.0871C35.9373 36.8826 35.6723 37.5998 35.3851 38.3779C36.0845 38.3219 36.2252 37.8264 36.2203 37.176C36.4703 37.4294 36.6628 37.624 36.8554 37.8185ZM11.1407 60.8608L11.1548 60.7317L11.0955 60.7441L11.1407 60.8608L11.1252 60.9922L11.1856 60.9808L11.1407 60.8608ZM21.6409 47.2731C21.4553 47.4623 21.2695 47.652 21.0836 47.8409C21.129 47.8968 21.1738 47.9536 21.2189 48.01C21.3745 47.8438 21.5289 47.6786 21.6841 47.512C21.8068 47.5735 21.93 47.6349 22.0943 47.7173C22.1136 47.2024 22.0335 46.9711 21.6409 47.2731ZM12.78 54.8546C13.1688 55.9384 13.6246 54.7199 13.984 55.1287C13.7086 54.3505 13.2857 54.6963 12.78 54.8546ZM25.1935 44.0468C25.2914 44.1168 25.3896 44.1864 25.4879 44.2568C25.5662 44.0275 25.6486 43.7989 25.7157 43.5653C25.7196 43.5511 25.5648 43.4453 25.5578 43.456C25.4295 43.6459 25.3127 43.8481 25.1935 44.0468ZM24.0673 45.3237C24.0359 45.2264 24.0032 45.13 23.9718 45.0327C23.8475 45.0815 23.6957 45.0925 23.6061 45.1892C23.497 45.3076 23.4397 45.4982 23.2228 45.9316C23.66 45.6176 23.8635 45.4705 24.0673 45.3237ZM24.1437 50.0755C24.1617 49.9945 24.1799 49.9144 24.198 49.8334C24.1316 49.8126 24.0472 49.7525 24.0038 49.7826C23.9616 49.8117 23.9619 49.9331 23.9439 50.0141C24.0106 50.0344 24.0766 50.0549 24.1437 50.0755ZM34.9366 38.2682C34.877 38.2599 34.7951 38.2189 34.7633 38.2516C34.7242 38.2919 34.7257 38.3931 34.7102 38.4679C34.7905 38.4742 34.8715 38.4803 34.9518 38.4865C34.9465 38.4138 34.9419 38.3409 34.9366 38.2682ZM24.5656 49.4079C24.5869 49.3829 24.6073 49.3585 24.629 49.3339C24.5927 49.3137 24.557 49.2926 24.5201 49.2725C24.5131 49.3053 24.4968 49.3411 24.5024 49.3701C24.506 49.3882 24.5434 49.3959 24.5656 49.4079Z" fill="#497DEB"/>
<path fill-rule="evenodd" clip-rule="evenodd" d="M43.1849 26.9665C42.7267 27.1047 42.312 27.0816 42.0457 26.5131C42.0521 25.8446 42.0559 25.1822 42.6707 24.8349C43.182 24.5462 43.0712 23.9536 43.2178 23.2353C42.9331 23.3583 42.7823 23.4239 42.5886 23.508C42.6699 23.2732 42.7403 23.07 42.8334 22.8015C43.067 22.8778 43.2928 22.9513 43.6737 23.0754C43.6456 22.5291 43.6225 22.082 43.5846 21.3515C43.5997 21.2892 44.2984 21.564 44.0068 20.78C43.7278 20.8498 43.4286 20.9248 43.1569 20.9928C42.8536 20.5744 42.5692 20.1827 42.2846 19.7901C42.094 19.6181 41.9034 19.4469 41.7131 19.2744C41.7105 18.2681 41.7418 18.2168 42.3695 18.189C42.6773 18.2746 42.9865 18.3551 43.2927 18.4491C43.7413 18.5866 43.8995 18.9002 43.6661 19.4527C43.4345 19.3985 43.2047 19.3452 42.9754 19.291C42.9298 19.3605 42.8843 19.4308 42.8382 19.5013C43.0368 19.7484 43.203 20.0706 43.4424 20.2257C43.8308 20.4772 43.8922 19.904 44.0815 19.6932C44.2284 19.5294 44.2732 19.2284 44.3635 18.9882C44.4267 19.0109 44.4902 19.0331 44.5534 19.055C44.5298 19.3939 44.5071 19.7322 44.484 20.0694C45.2637 19.7695 45.2637 19.7695 45.3247 18.9034C44.8923 18.5839 44.2891 18.5003 44.0788 17.4618C44.8075 17.926 45.3767 18.2888 45.9465 18.6515C46.0234 18.7123 46.1 18.7735 46.1776 18.835C46.7519 19.5609 46.8186 19.9143 46.3954 20.6547C45.5267 22.1754 44.9038 23.8456 44.2557 25.5102C44.036 26.075 43.5493 26.4859 43.1849 26.9665Z" fill="#5A89EC"/>
<path fill-rule="evenodd" clip-rule="evenodd" d="M46.3076 18.7213C46.2304 18.6602 46.1539 18.599 46.0771 18.5382C46.0311 18.2749 46.0539 17.9299 45.9245 17.7641C45.6657 17.4317 45.3233 17.198 44.9598 16.8741C45.1911 16.6321 45.4234 16.3903 45.655 16.1487C45.9806 16.455 46.2706 16.5017 46.5226 16.0047C46.6508 15.7515 46.8153 15.5251 46.9631 15.2866C46.9903 15.2954 47.0172 15.3103 47.0438 15.3087C47.0595 15.308 47.0753 15.2807 47.091 15.2659C47.0486 15.273 47.0056 15.2803 46.9629 15.287C46.549 14.7604 46.9941 14.6971 47.2361 14.6462C47.7076 14.5483 47.9644 14.3957 47.5741 13.8143C47.552 13.5891 47.5983 13.2503 47.4962 13.1579C46.9782 12.6892 46.6019 12.8124 46.1036 13.531C45.9089 13.9296 45.6785 14.1177 45.2948 13.843C45.1141 13.7135 44.8807 13.692 44.6717 13.6221C44.7654 13.4693 44.8594 13.3161 44.9535 13.1636C45.0309 13.0257 45.1078 12.8888 45.185 12.7521C45.3983 12.6884 45.6115 12.6239 45.8245 12.5606C45.963 12.3796 46.1011 12.1991 46.2398 12.0169C46.5312 12.1477 46.8189 12.2969 47.1167 12.3989C47.1756 12.4184 47.2759 12.2603 47.3951 12.1484C47.2689 11.8368 47.1485 11.538 47.023 11.227C46.7255 11.4828 46.4794 11.6955 46.2323 11.9079C46.1106 11.6893 45.9885 11.4704 45.8668 11.2518C46.4876 10.5786 47.1636 11.0816 47.7542 10.9965C47.9449 11.7668 48.1098 12.4299 48.2741 13.0925C48.9008 13.9695 48.532 14.8203 48.1642 15.6278C48.0647 15.8463 47.7585 15.9247 47.4059 16.163C47.2657 16.8543 47.0785 17.7801 46.8755 18.7815C46.7638 18.7696 46.5358 18.7458 46.3076 18.7213Z" fill="#80A4F1"/>
<path fill-rule="evenodd" clip-rule="evenodd" d="M45.6197 16.2175C45.388 16.4592 45.1556 16.701 44.9243 16.943C45.2875 17.2668 45.6304 17.5009 45.8893 17.8334C46.0188 17.9992 45.9959 18.3444 46.042 18.6078C45.4718 18.2448 44.9024 17.8817 44.1742 17.4179C44.3845 18.4562 44.9878 18.5394 45.4198 18.8592C45.3586 19.7257 45.3586 19.7257 44.5793 20.0251C44.6024 19.6879 44.6251 19.3497 44.6487 19.0109C44.5852 18.9886 44.5217 18.9664 44.4588 18.9441C44.3686 19.1842 44.3238 19.4852 44.1769 19.6489C43.9876 19.8597 43.9259 20.4332 43.5379 20.1814C43.2985 20.0262 43.1324 19.7041 42.9338 19.457C42.9797 19.387 43.0251 19.3168 43.071 19.2468C43.3005 19.3006 43.5303 19.3539 43.7616 19.4085C43.9949 18.8561 43.8367 18.5425 43.3882 18.4051C43.0821 18.3111 42.773 18.2306 42.4652 18.145C42.541 17.9537 42.6161 17.7618 42.6923 17.5708C42.835 17.531 42.9774 17.4889 43.1197 17.4488C42.8756 17.2607 42.8397 17.0772 43.132 16.9007C43.733 17.1636 43.915 17.0382 44.2028 16.1611C43.8485 16.3974 43.4951 16.6344 43.1413 16.8718C43.102 16.7302 42.996 16.5481 43.0351 16.4524C43.5178 15.2685 43.7648 13.9244 44.6069 12.9831C44.7109 13.0659 44.8143 13.1489 44.9179 13.2315C44.8238 13.384 44.7298 13.5373 44.636 13.6901C44.6155 13.7272 44.5911 13.7623 44.5749 13.8026C44.4519 14.0984 44.087 14.4087 44.4338 14.7248C44.8167 15.0745 44.8742 14.4889 45.0545 14.2694C45.0734 14.2463 45.1186 14.2563 45.1702 14.249C45.2804 14.6419 45.3923 15.0404 45.5037 15.4379C45.4768 15.6236 45.4507 15.8087 45.4247 15.9939C45.489 16.068 45.5543 16.1423 45.6197 16.2175ZM43.778 17.5333C43.6704 18.0666 43.6704 18.0666 44.0692 18.3281C43.9718 18.0631 43.8818 17.818 43.778 17.5333Z" fill="#497DEB"/>
<path fill-rule="evenodd" clip-rule="evenodd" d="M6.13853 64.3957C6.21957 64.2546 6.30035 64.114 6.38176 63.9733C6.49439 63.9743 6.60675 63.9758 6.71965 63.9764L6.72661 63.9799C6.8499 64.4093 6.97355 64.8391 7.0972 65.2689C6.90216 65.5543 6.70684 65.8402 6.51217 66.1259L6.52246 66.1219C5.99659 65.8011 5.8708 65.8578 5.7727 66.4652C5.26514 66.9479 4.83554 67.0312 4.4187 66.2713C4.17235 65.8224 3.78597 65.4899 3.30345 65.221C3.36257 65.4987 3.42232 65.7764 3.48116 66.0547C3.18841 65.6353 2.53496 65.5635 2.68683 64.8061C2.74603 64.663 2.80567 64.5181 2.94746 64.1748C2.64281 64.3459 2.49436 64.4282 2.34599 64.5114C2.12174 64.7561 1.94814 65.2975 1.58156 64.9319C1.39688 64.7471 1.38105 64.3085 1.27858 63.9497C2.13015 63.5408 2.85512 63.1928 3.58037 62.8444C3.624 62.7526 3.66727 62.6606 3.71026 62.569C3.71026 62.569 3.77937 62.5062 3.77947 62.507C3.96081 62.5401 4.14343 62.573 4.32586 62.6043C4.0648 62.9086 3.80384 63.2138 3.51858 63.5473C3.62207 63.9806 3.72989 64.4331 3.85806 64.9712C4.20238 64.8064 4.49419 64.6586 4.79032 64.5273C5.15904 64.364 5.53142 64.2144 5.90265 64.0583C5.94142 64.1366 5.98018 64.2149 6.01858 64.2929C6.01051 64.3601 6.00181 64.4274 5.99401 64.4941C6.04194 64.4611 6.09023 64.4284 6.13853 64.3957Z" fill="#A6BFF5"/>
<path fill-rule="evenodd" clip-rule="evenodd" d="M31.1603 42.8562C31.3022 42.6195 31.4773 42.401 31.5743 42.1406C31.641 41.9633 31.5971 41.7265 31.603 41.5157L31.6059 41.5176C31.7681 41.3406 31.9063 41.0872 32.0951 41.0017C32.5763 40.7837 32.8855 40.441 33.066 39.8297C33.1585 39.5166 33.4574 39.2925 33.7175 38.959C34.0674 39.829 34.0183 40.529 33.7889 41.238C33.7881 41.2394 33.8473 41.2794 33.8797 41.2828C33.9145 41.2869 33.9513 41.2696 33.9876 41.2616C34.2128 41.5835 34.1263 41.7834 33.8386 41.98C33.3211 42.3344 32.8222 42.7294 32.3152 43.1073C32.1487 43.1067 31.9146 43.0198 31.8282 43.1209C31.5175 43.4842 31.256 43.9118 30.9762 44.3146C30.8433 44.231 30.7107 44.1461 30.5781 44.062C30.536 43.9935 30.4994 43.9206 30.4677 43.8443C30.5916 43.7562 30.7156 43.5953 30.8407 43.5923C31.3455 43.5797 31.2491 43.2248 31.1603 42.8562Z" fill="#BBCFF7"/>
<path fill-rule="evenodd" clip-rule="evenodd" d="M48.3458 13.0528C48.1825 12.3938 48.0185 11.7342 47.8288 10.968C47.2415 11.0526 46.5692 10.5523 45.9515 11.2216C45.7086 11.2778 45.4661 11.3344 45.223 11.391C45.1376 10.9145 45.1164 10.4227 45.6641 10.4618C46.2041 10.4989 45.9104 9.95664 46.0903 9.71658C46.4439 9.62657 46.8202 9.53169 47.2636 9.41919C47.2601 9.74458 47.257 10.0209 47.253 10.3821C47.4133 10.29 47.5612 10.2593 47.5778 10.1862C47.7425 9.45826 48.0698 9.0407 48.6779 9.17195C48.8619 9.8076 49.0777 10.3969 49.194 11.0154C49.2593 11.3609 49.1609 11.7559 49.1357 12.1289C49.044 12.1498 48.9528 12.1717 48.8616 12.1929L48.8822 12.1952C48.7762 12.1663 48.6706 12.1377 48.5652 12.1087C48.6215 12.1972 48.6789 12.2854 48.7354 12.3734C48.6057 12.5996 48.4758 12.8262 48.3458 13.0528Z" fill="#BBCFF7"/>
<path fill-rule="evenodd" clip-rule="evenodd" d="M37.8989 33.8357C38.02 32.8165 38.7197 32.4132 39.2957 31.8787C39.5543 32.0126 39.8129 32.1465 40.0712 32.2809C39.9084 33.2269 39.5048 33.9672 38.8777 34.5772C38.4005 35.0406 37.9974 35.618 37.5608 36.1451C37.2486 35.9253 37.094 35.6265 37.2439 35.1752C37.5338 34.8584 37.8285 34.548 38.102 34.2116C38.1189 34.1891 37.9703 33.9657 37.8989 33.8357Z" fill="#5E8CED"/>
<path fill-rule="evenodd" clip-rule="evenodd" d="M24.4354 50.3177C24.5328 49.923 24.4617 49.35 25.0556 49.4982C25.1725 49.5275 25.3385 49.4836 25.435 49.3961C26.1669 48.7274 26.1631 48.7213 26.5605 49.8203C25.6731 50.6233 24.7858 51.4264 23.8986 52.2282C23.3524 51.581 23.8861 51.3999 24.2218 51.1328C24.3004 50.992 24.379 50.8512 24.4584 50.7111C24.8608 50.5379 24.4888 50.4435 24.4354 50.3177Z" fill="#5A89EC"/>
<path fill-rule="evenodd" clip-rule="evenodd" d="M31.1442 42.9162C31.2329 43.2843 31.3291 43.6387 30.8255 43.6508C30.7006 43.6538 30.5769 43.8144 30.4529 43.9029C30.4898 43.9752 30.5266 44.0475 30.5634 44.1198C30.6958 44.2037 30.8282 44.2885 30.9608 44.3728C30.9192 44.4556 30.8779 44.538 30.8363 44.6208C30.8091 45.316 30.5737 45.8016 29.9644 45.9128C29.6156 45.7955 29.2659 45.6788 28.9078 45.558C28.8348 44.8189 29.3468 44.8721 29.6296 44.595C29.8849 44.3456 29.9396 43.8061 30.1244 43.4241C30.3031 43.0551 30.5347 42.7239 30.7895 42.2985C30.9091 42.5051 31.0265 42.7105 31.1442 42.9162Z" fill="#719AEF"/>
<path fill-rule="evenodd" clip-rule="evenodd" d="M17.6954 58.0652C17.0002 57.3151 17.0006 57.3162 17.7911 56.6547C17.878 56.5816 18.0192 56.4905 18.0228 56.4032C18.0777 55.0933 19.2557 55.2838 19.7108 54.513C19.7281 54.4832 19.908 54.5946 20.011 54.641C19.7536 54.7968 19.4793 54.9482 19.9 55.2739C19.7025 55.4159 19.505 55.5579 19.2755 55.7237C19.4146 55.8743 19.5449 56.0158 19.6756 56.1575C19.4742 56.4084 19.2725 56.6596 19.0712 56.9113C18.4722 56.6026 18.4722 56.6027 18.0123 57.6877C17.9013 57.8135 17.7907 57.9396 17.6794 58.0651L17.6954 58.0652Z" fill="#BBCFF7"/>
<path fill-rule="evenodd" clip-rule="evenodd" d="M24.2163 51.2044C23.8818 51.4707 23.3502 51.6512 23.8944 52.2964C23.7388 52.3763 23.5826 52.4543 23.4266 52.5339C23.3329 52.5523 23.2402 52.5701 23.1464 52.5877L23.0843 52.5971C22.8237 52.4724 22.5629 52.3482 22.0538 52.1054C22.2173 52.8274 22.3059 53.2212 22.3952 53.6149C22.2623 53.7284 22.129 53.8415 21.996 53.955C21.1286 52.6346 21.2181 52.0994 22.4163 51.4741C22.6458 51.3546 22.9545 51.3359 23.1034 51.134C23.535 50.5473 23.864 50.849 24.2163 51.2044Z" fill="#6B95EE"/>
<path fill-rule="evenodd" clip-rule="evenodd" d="M9.10737 62.8255C9.25956 62.6504 9.41202 62.4748 9.56383 62.2993C9.73423 62.4462 9.90473 62.5939 10.0755 62.7412L10.0759 62.7472C10.0157 63.1498 9.95555 63.5531 9.89504 63.9562C9.51795 64.6803 8.96527 64.9338 8.29287 64.8661C8.15875 64.7691 8.02462 64.6721 7.8905 64.5751C7.66295 63.8415 8.22617 64.3631 8.3415 64.1495C8.58477 63.6984 8.85053 63.2659 9.10737 62.8255Z" fill="#A6BFF5"/>
<path fill-rule="evenodd" clip-rule="evenodd" d="M40.1121 32.2425C39.8551 32.1086 39.5979 31.9753 39.3406 31.8419C39.3475 31.5241 39.3543 31.2056 39.3612 30.8878L39.356 30.8451C39.6281 30.5967 39.9093 30.3599 40.1701 30.0943C40.3958 29.8644 40.211 29.0682 40.9308 29.4185C40.655 29.7904 40.4656 30.2048 40.8822 30.573C40.9108 30.7027 40.9388 30.8325 40.967 30.9619C40.6818 31.3895 40.3967 31.8158 40.1121 32.2425Z" fill="#80A4F1"/>
<path fill-rule="evenodd" clip-rule="evenodd" d="M41.7369 29.1895C41.4993 29.0182 41.262 28.8473 40.8762 28.5699C41.4648 28.1955 41.1637 27.0504 42.1301 27.1206C41.9336 27.5553 41.7773 27.8999 41.6215 28.2448C41.6798 28.3143 41.7378 28.3835 41.796 28.4522C42.1392 28.1055 42.4818 27.7597 42.8247 27.4135C42.7397 27.9238 42.6533 28.4343 42.5781 28.8827C42.2832 28.9902 42.0101 29.0898 41.7369 29.1895Z" fill="#5A89EC"/>
<path fill-rule="evenodd" clip-rule="evenodd" d="M27.0992 49.244C26.4055 48.812 26.2862 48.1073 26.488 47.2506C27.385 46.9725 27.434 48.0501 27.8539 48.5391C27.6022 48.774 27.3505 49.0088 27.0992 49.244Z" fill="#5A89EC"/>
<path fill-rule="evenodd" clip-rule="evenodd" d="M4.39314 62.5818C4.20921 62.5497 4.02481 62.5165 3.84171 62.4831C3.89983 62.3974 3.9573 62.3119 4.01579 62.2265C4.0822 62.0956 4.14871 61.9654 4.33911 61.5922C4.03736 61.815 3.93482 61.8912 3.83191 61.9672C3.73005 61.7705 3.62883 61.5736 3.52771 61.3776C3.71499 61.3137 3.90191 61.2495 4.08919 61.1856C4.22548 61.1661 4.40086 61.2039 4.48948 61.1138C4.63995 60.9603 4.73549 60.7256 4.85467 60.5245C4.9152 60.528 4.9752 60.5218 5.0355 60.5047C5.12211 60.5349 5.20798 60.5644 5.29432 60.5951C5.29432 60.5951 5.38073 60.6532 5.3811 60.6535C5.3552 60.9629 5.32957 61.2719 5.30394 61.5809C4.98107 61.6726 4.69043 61.7847 4.6895 62.31C4.69025 62.399 4.49715 62.4907 4.39314 62.5818Z" fill="#FDFEFF"/>
<path fill-rule="evenodd" clip-rule="evenodd" d="M36.7351 37.5071C36.5443 37.3138 36.3531 37.121 36.1067 36.8719C36.1115 37.5179 35.9721 38.01 35.2788 38.0657C35.5635 37.2928 35.8262 36.5805 36.1177 35.7904C36.3786 35.944 36.5661 36.0541 36.7523 36.1637C36.9606 36.2458 37.1695 36.3278 37.3781 36.4095C37.164 36.7746 36.9498 37.141 36.7351 37.5071Z" fill="#6B95EE"/>
<path fill-rule="evenodd" clip-rule="evenodd" d="M12.4857 62.1148C12.3169 61.9588 12.1475 61.8031 11.9788 61.6479C12.0805 61.4888 12.1817 61.3294 12.2826 61.1696C12.4546 60.2968 13.1943 60.2955 13.6507 59.7C13.7883 59.9805 13.8786 60.1624 13.9869 60.3829C13.5414 60.9219 13.1027 61.4536 12.6643 61.9847C12.628 62.0779 12.5691 62.1207 12.4857 62.1148Z" fill="#A6BFF5"/>
<path fill-rule="evenodd" clip-rule="evenodd" d="M5.38762 60.5913L5.30136 60.5333C5.40841 60.3373 5.51593 60.1425 5.62298 59.9465L5.67487 59.8513C6.08318 60.2348 6.23225 59.7646 6.44234 59.4952L6.42629 59.5068C6.56722 59.5294 6.7087 59.5512 6.96319 59.591C6.85923 59.8388 6.68906 60.0577 6.713 60.2331C6.74512 60.4642 6.9297 60.6616 7.00122 60.7898C6.64249 60.9821 6.26889 61.1821 5.89501 61.3826C5.81465 61.3432 5.73466 61.3041 5.6543 61.2647C5.56559 61.0399 5.47661 60.8156 5.38762 60.5913Z" fill="#D3E0FA"/>
<path fill-rule="evenodd" clip-rule="evenodd" d="M28.4744 47.6921C28.3568 47.5797 28.239 47.4677 28.1209 47.3554C28.2019 47.2087 28.284 47.061 28.365 46.9143C28.4834 47.0073 28.6009 47.1009 28.7191 47.1944C28.7614 47.1604 28.8036 47.1268 28.8462 47.0924C28.6552 46.7081 28.4642 46.3245 28.2249 45.8442C28.962 45.7116 28.9935 46.6904 29.4542 46.8754C29.0995 47.0979 29.0691 47.9052 28.4744 47.6921Z" fill="#719AEF"/>
<path fill-rule="evenodd" clip-rule="evenodd" d="M30.8249 44.5846C30.8667 44.5015 30.9083 44.4188 30.9501 44.3357C31.2306 43.9313 31.4925 43.5033 31.8043 43.1388C31.8909 43.0375 32.1257 43.1245 32.2927 43.1252C31.9255 44.1899 31.4736 44.6393 30.8249 44.5846Z" fill="#5E8CED"/>
<path fill-rule="evenodd" clip-rule="evenodd" d="M22.3839 53.6156C22.2959 53.2258 22.2077 52.8352 22.0457 52.1198C22.5503 52.36 22.8083 52.4836 23.0667 52.6067C23.0713 52.7103 23.0758 52.8132 23.0804 52.9169C23.0715 53.4848 22.6656 53.4572 22.3839 53.6156Z" fill="#5384EC"/>
<path fill-rule="evenodd" clip-rule="evenodd" d="M35.6197 38.9481C35.8973 38.4866 35.9974 37.8134 36.5938 37.7343C36.8031 38.6986 36.4207 39.1747 35.6197 38.9481Z" fill="#B0C6F6"/>
<path fill-rule="evenodd" clip-rule="evenodd" d="M7.87304 64.6258C8.00752 64.723 8.14199 64.8202 8.27674 64.917C7.77915 65.5406 7.18909 65.9366 6.47704 66.0381C6.67462 65.7483 6.87284 65.4584 7.06978 65.1688C7.15015 65.1396 7.23127 65.1111 7.31202 65.0822C7.41026 65.0633 7.50914 65.0443 7.60738 65.0254C7.69618 64.8924 7.78396 64.7592 7.87304 64.6258Z" fill="#6591EE"/>
<path fill-rule="evenodd" clip-rule="evenodd" d="M45.2086 11.4564C45.4512 11.3999 45.6931 11.3436 45.9353 11.2875C46.0567 11.5042 46.1778 11.7214 46.2982 11.9387L46.3055 12.0481C46.1682 12.2276 46.0311 12.4067 45.8938 12.5862C45.7021 12.3165 45.51 12.0472 45.3182 11.7767C45.2658 11.7134 45.2138 11.6495 45.1613 11.5854C45.17 11.5389 45.1863 11.4956 45.2086 11.4564Z" fill="#C7D7F9"/>
<path fill-rule="evenodd" clip-rule="evenodd" d="M19.6708 56.1159C19.5416 55.9756 19.4128 55.8356 19.2753 55.6864C19.5022 55.5231 19.6974 55.3817 19.8926 55.2412C20.1496 55.22 20.4668 54.9903 20.5617 55.5252C20.2555 55.6996 20.1771 56.3981 19.6708 56.1159Z" fill="#6B95EE"/>
<path fill-rule="evenodd" clip-rule="evenodd" d="M17.9938 57.6864C18.4523 56.604 18.4523 56.604 19.05 56.9115C18.7484 57.2145 18.4474 57.5166 18.1458 57.8195C18.0937 57.7775 18.0435 57.7334 17.9938 57.6864Z" fill="#5E8CED"/>
<path fill-rule="evenodd" clip-rule="evenodd" d="M37.3927 36.376C37.1863 36.2952 36.9796 36.214 36.7735 36.1327C36.8528 35.8181 36.4766 35.4179 36.9008 35.1678C37.0093 35.1837 37.1187 35.1991 37.2284 35.214C37.0812 35.6581 37.233 35.9529 37.54 36.1695C37.4912 36.2388 37.4422 36.3074 37.3927 36.376Z" fill="#B0C6F6"/>
<path fill-rule="evenodd" clip-rule="evenodd" d="M45.1484 11.6025C45.2015 11.6674 45.2542 11.7319 45.3075 11.7963C45.2874 12.133 45.2677 12.47 45.2476 12.8067C45.1705 12.9441 45.0934 13.0815 45.0153 13.2195C44.9113 13.1367 44.8076 13.0535 44.7033 12.9703C44.8514 12.5142 44.9999 12.0584 45.1484 11.6025Z" fill="#5A89EC"/>
<path fill-rule="evenodd" clip-rule="evenodd" d="M43.1552 16.9009C43.5105 16.6625 43.8655 16.4246 44.2212 16.1874C43.9319 17.0674 43.7495 17.1936 43.1459 16.9298L43.1552 16.9009Z" fill="#5A89EC"/>
<path fill-rule="evenodd" clip-rule="evenodd" d="M26.1729 42.2277C26.3107 42.4217 26.4485 42.6158 26.5879 42.8112C26.1059 43.248 26.1059 43.248 26.0215 42.4381C26.0719 42.368 26.1224 42.2978 26.1729 42.2277Z" fill="#BBCFF7"/>
<path fill-rule="evenodd" clip-rule="evenodd" d="M5.73082 66.4217C5.82971 65.8095 5.95612 65.752 6.48651 66.0756C6.23434 66.1905 5.98253 66.3057 5.73082 66.4217Z" fill="#6591EE"/>
<path fill-rule="evenodd" clip-rule="evenodd" d="M41.7695 19.3203C41.9584 19.4914 42.1473 19.6613 42.3364 19.8319C42.3009 19.8998 42.2637 19.9648 42.2242 20.029C42.1757 20.1006 42.1272 20.1722 42.0793 20.2437C41.9246 20.1684 41.7704 20.0942 41.6134 20.0169C41.6635 19.7832 41.7166 19.5521 41.7695 19.3203Z" fill="#3E76EA"/>
<path fill-rule="evenodd" clip-rule="evenodd" d="M4.87147 60.52C4.75118 60.7225 4.65439 60.9587 4.50289 61.1137C4.41346 61.2045 4.23644 61.1664 4.0989 61.1861C4.3237 60.9069 4.37945 60.3331 4.87147 60.52Z" fill="#D3E0FA"/>
<path fill-rule="evenodd" clip-rule="evenodd" d="M6.4623 59.5019C6.25159 59.7721 6.10183 60.244 5.69246 59.8588C5.94932 59.7401 6.20582 59.621 6.4623 59.5019Z" fill="#497DEB"/>
<path fill-rule="evenodd" clip-rule="evenodd" d="M2.34552 64.5629C2.49534 64.479 2.64524 64.3958 2.95286 64.2231C2.80967 64.5697 2.74944 64.716 2.68966 64.8605C2.57531 64.7607 2.46005 64.6615 2.34552 64.5629Z" fill="#719AEF"/>
<path fill-rule="evenodd" clip-rule="evenodd" d="M3.75319 62.5755C3.71009 62.6672 3.66697 62.7588 3.62377 62.8497C3.49933 62.7154 3.37516 62.5805 3.25062 62.4454C3.27311 62.4031 3.29559 62.3609 3.31808 62.3187C3.46324 62.4044 3.6083 62.4893 3.75319 62.5755Z" fill="#D3E0FA"/>
<path fill-rule="evenodd" clip-rule="evenodd" d="M17.9863 57.7027C18.0358 57.7496 18.0859 57.7935 18.1378 57.8355C17.977 57.9165 17.8161 57.9974 17.6553 58.0784C17.766 57.9535 17.8761 57.8287 17.9863 57.7027Z" fill="#497DEB"/>
<path fill-rule="evenodd" clip-rule="evenodd" d="M5.63956 59.9755C5.53136 60.1732 5.42269 60.3698 5.31449 60.5675C5.22738 60.5366 5.14072 60.5069 5.05333 60.4765C5.24837 60.3101 5.44397 60.1428 5.63956 59.9755Z" fill="#87AAF2"/>
<path fill-rule="evenodd" clip-rule="evenodd" d="M3.82543 61.9789C3.92876 61.903 4.03227 61.8258 4.33605 61.6018C4.14439 61.9772 4.07717 62.1085 4.01059 62.2397C3.94866 62.1528 3.887 62.0654 3.82543 61.9789Z" fill="#D3E0FA"/>
<path fill-rule="evenodd" clip-rule="evenodd" d="M48.7008 12.3411C48.6445 12.2535 48.5872 12.1656 48.5312 12.0775C48.6368 12.1063 48.742 12.1348 48.847 12.1637C48.803 12.2287 48.7547 12.2878 48.7008 12.3411Z" fill="#80A4F1"/>
<path fill-rule="evenodd" clip-rule="evenodd" d="M34.7089 39.8706C34.7151 39.7812 34.722 39.6917 34.7285 39.6026C34.7813 39.6194 34.8347 39.6368 34.8868 39.6536C34.8272 39.7264 34.7678 39.798 34.7089 39.8706Z" fill="#B0C6F6"/>
<path fill-rule="evenodd" clip-rule="evenodd" d="M40.9567 30.9393C40.9287 30.8112 40.901 30.6826 40.8726 30.5542C40.9364 30.5894 40.9985 30.6302 41.0569 30.6773C41.0234 30.7645 40.9898 30.8518 40.9567 30.9393Z" fill="#5A89EC"/>
<path fill-rule="evenodd" clip-rule="evenodd" d="M41.7942 20.1015C41.6581 20.1347 41.5217 20.1683 41.3853 20.2012C41.5212 20.1672 41.658 20.1339 41.7942 20.1015Z" fill="#5A89EC"/>
<path fill-rule="evenodd" clip-rule="evenodd" d="M43.1212 17.5024C42.9792 17.5424 42.8372 17.5845 42.6948 17.6241C42.8363 17.583 42.9789 17.5429 43.1212 17.5024Z" fill="#5A89EC"/>
<path fill-rule="evenodd" clip-rule="evenodd" d="M48.8266 12.1519C48.9181 12.1306 49.0095 12.1085 49.1014 12.0876C49.0099 12.1089 48.9184 12.1301 48.8266 12.1519Z" fill="#80A4F1"/>
<path fill-rule="evenodd" clip-rule="evenodd" d="M23.0829 52.895C23.0786 52.7908 23.0741 52.6871 23.0691 52.5822C23.0688 52.5827 23.1308 52.5733 23.1302 52.5735C23.1299 52.5739 23.2127 52.6582 23.2127 52.6582C23.1699 52.7374 23.1261 52.8163 23.0829 52.895Z" fill="#6B95EE"/>
<path fill-rule="evenodd" clip-rule="evenodd" d="M23.216 52.6528C23.216 52.6528 23.1336 52.5689 23.1339 52.5684C23.2274 52.5504 23.3199 52.533 23.413 52.5147C23.3464 52.5608 23.2814 52.6069 23.216 52.6528Z" fill="#5384EC"/>
<path fill-rule="evenodd" clip-rule="evenodd" d="M5.60253 61.3026C5.68318 61.3422 5.76347 61.3814 5.84412 61.4209C6.30599 62.2626 6.34615 63.1325 5.93918 64.0313C5.56476 64.1882 5.18772 64.34 4.81428 64.5048C4.51467 64.6377 4.21942 64.7871 3.87104 64.9538C3.74135 64.4096 3.63189 63.9515 3.52756 63.5135C3.8158 63.1758 4.07994 62.8679 4.34434 62.5596C4.44829 62.4688 4.64178 62.377 4.64158 62.2869C4.64214 61.7603 4.93376 61.6484 5.25664 61.5566C5.37153 61.4713 5.48717 61.3868 5.60253 61.3026Z" fill="#719AEF"/>
<path fill-rule="evenodd" clip-rule="evenodd" d="M7.35294 65.0785C7.27248 65.1073 7.19164 65.1357 7.11155 65.1648C6.98716 64.7301 6.86213 64.2955 6.73784 63.8616C6.78652 63.5537 6.83521 63.2459 6.86434 63.0611C7.4104 62.8628 7.89351 62.6878 8.51689 62.4621C8.62153 62.5329 8.87488 62.7046 9.1284 62.875C8.87207 63.3147 8.60617 63.7465 8.36321 64.198C8.24798 64.4114 7.68529 63.8903 7.91262 64.6233C7.82358 64.7568 7.73583 64.89 7.64798 65.0225C7.55 65.0406 7.4511 65.0592 7.35294 65.0785Z" fill="#719AEF"/>
<path fill-rule="evenodd" clip-rule="evenodd" d="M19.9133 55.2249C19.4926 54.8992 19.7668 54.7479 20.0242 54.5921C20.3105 53.9708 20.5964 53.3503 20.916 52.6562C21.0763 53.1082 21.2141 53.4964 21.3514 53.8826C20.8673 54.3343 20.3901 54.7795 19.9133 55.2249Z" fill="#6B95EE"/>
<path fill-rule="evenodd" clip-rule="evenodd" d="M37.2491 35.2016C37.138 35.1861 37.0269 35.1705 36.9165 35.1548C36.9179 35.1554 36.8124 35.1363 36.8124 35.1363C36.8718 35.0974 36.9158 35.0412 36.9445 34.9665C37.2642 34.5986 37.5839 34.2307 37.9037 33.8636C37.9748 33.9946 38.1232 34.2178 38.1062 34.2394C37.8328 34.5751 37.5386 34.8852 37.2491 35.2016Z" fill="#BBCFF7"/>
<path fill-rule="evenodd" clip-rule="evenodd" d="M10.3601 62.2737C10.2738 62.4197 10.1869 62.5658 10.1007 62.7118C9.93209 62.5664 9.76379 62.4205 9.59558 62.2755C9.61876 62.058 9.64121 61.8399 9.68555 61.415C9.99322 61.8059 10.1766 62.0394 10.3601 62.2737Z" fill="#719AEF"/>
<path fill-rule="evenodd" clip-rule="evenodd" d="M12.2874 61.2089C12.1866 61.3677 12.0861 61.5261 11.9851 61.6854C11.7936 61.7283 11.6027 61.7703 11.4116 61.8135C11.6139 60.8503 11.6213 60.8456 12.2874 61.2089Z" fill="#6893EE"/>
<path fill-rule="evenodd" clip-rule="evenodd" d="M24.5796 43.927C24.6559 44.0139 24.7914 44.0969 24.7956 44.1895C24.8061 44.4195 24.7625 44.6566 24.7181 44.8845C24.7147 44.9017 24.4504 44.8888 24.4456 44.8559C24.4149 44.6625 24.4058 44.4555 24.4295 44.2603C24.4442 44.1417 24.5316 44.0375 24.5865 43.9268L24.5796 43.927Z" fill="#C7D7F9"/>
<path fill-rule="evenodd" clip-rule="evenodd" d="M36.9542 34.9871C36.9255 35.0615 36.8827 35.1169 36.8237 35.1551C36.5771 34.9199 36.4385 34.6517 36.707 34.0752C36.8175 34.4839 36.8863 34.7352 36.9542 34.9871Z" fill="#5E8CED"/>
<path fill-rule="evenodd" clip-rule="evenodd" d="M25.1646 44.0239C25.2831 43.826 25.3986 43.6255 25.5262 43.4371C25.5332 43.4265 25.6868 43.5316 25.6829 43.5457C25.6164 43.7779 25.535 44.0054 25.457 44.233C25.3589 44.1631 25.2617 44.0935 25.1646 44.0239Z" fill="#FEFEFF"/>
<path fill-rule="evenodd" clip-rule="evenodd" d="M24.0351 45.3465C23.8323 45.4928 23.6299 45.6393 23.1952 45.9525C23.4113 45.5202 23.468 45.33 23.5766 45.2129C23.6658 45.1166 23.8168 45.1056 23.9405 45.0569C23.9717 45.1539 24.0036 45.25 24.0351 45.3465Z" fill="#C7D7F9"/>
<path fill-rule="evenodd" clip-rule="evenodd" d="M21.6526 47.588C21.4979 47.7535 21.3443 47.918 21.1895 48.0836C21.1447 48.0274 21.1001 47.9708 21.055 47.9152C21.2399 47.727 21.4247 47.5381 21.6092 47.3497C21.626 47.4288 21.6401 47.5084 21.6526 47.588Z" fill="#C7D7F9"/>
<path fill-rule="evenodd" clip-rule="evenodd" d="M24.0037 50.0397C23.9378 50.0193 23.873 49.9987 23.8074 49.9787C23.8255 49.8983 23.8252 49.7785 23.8665 49.7502C23.9092 49.7205 23.9921 49.7798 24.0575 49.8003C24.04 49.8798 24.0218 49.9594 24.0037 50.0397Z" fill="#5A89EC"/>
<path fill-rule="evenodd" clip-rule="evenodd" d="M34.8283 37.9979C34.8328 38.0698 34.8381 38.1415 34.8429 38.2129C34.7637 38.2072 34.684 38.2011 34.6053 38.1945C34.6206 38.1208 34.6191 38.021 34.6576 37.9813C34.6888 37.949 34.769 37.9891 34.8283 37.9979Z" fill="#6B95EE"/>
<path fill-rule="evenodd" clip-rule="evenodd" d="M28.3625 46.9295C28.281 47.077 28.1984 47.2254 28.117 47.3729C28.0522 47.2373 27.9867 47.1019 27.9222 46.9666C28.0685 46.9548 28.2157 46.9423 28.3625 46.9295Z" fill="#5A89EC"/>
<path fill-rule="evenodd" clip-rule="evenodd" d="M39.3715 30.9256C39.2471 30.9838 39.1231 31.0423 38.9988 31.1005C38.9892 31.0256 38.9801 30.9518 38.9705 30.8769C39.1023 30.8791 39.2343 30.8822 39.3663 30.884C39.3662 30.8832 39.3715 30.9256 39.3715 30.9256Z" fill="#80A4F1"/>
<path fill-rule="evenodd" clip-rule="evenodd" d="M21.6102 47.3362C21.9941 47.0396 22.0729 47.2669 22.0538 47.7726C21.893 47.6918 21.7729 47.6314 21.6526 47.5715C21.641 47.493 21.6271 47.4145 21.6102 47.3362Z" fill="#C7D7F9"/>
<path fill-rule="evenodd" clip-rule="evenodd" d="M6.7334 63.8939C6.62077 63.8937 6.50833 63.8922 6.39525 63.8909C6.50823 63.8914 6.62068 63.8929 6.7334 63.8939Z" fill="#719AEF"/>
<path fill-rule="evenodd" clip-rule="evenodd" d="M31.6293 41.5551C31.5426 41.6345 31.4558 41.7131 31.3691 41.7924C31.4568 41.7133 31.5444 41.6354 31.6322 41.557L31.6293 41.5551Z" fill="#719AEF"/>
<path fill-rule="evenodd" clip-rule="evenodd" d="M24.431 49.3637C24.4092 49.352 24.3725 49.3444 24.3693 49.3269C24.3639 49.2983 24.3799 49.263 24.3868 49.2308C24.423 49.2505 24.458 49.2713 24.4936 49.2911C24.4723 49.3154 24.4519 49.3391 24.431 49.3637Z" fill="#5A89EC"/>
<path fill-rule="evenodd" clip-rule="evenodd" d="M24.4453 50.3389C24.4984 50.4635 24.8657 50.557 24.468 50.7268C24.4602 50.5973 24.4528 50.4681 24.4453 50.3389Z" fill="#6B95EE"/>
<path fill-rule="evenodd" clip-rule="evenodd" d="M42.0704 20.2397C42.1202 20.1667 42.1703 20.0933 42.22 20.0195C42.1695 20.0926 42.1201 20.1659 42.0704 20.2397Z" fill="#5A89EC"/>
<path fill-rule="evenodd" clip-rule="evenodd" d="M6.14245 64.3346C6.0939 64.3674 6.04508 64.4007 5.9969 64.4339C6.00472 64.3668 6.01344 64.2992 6.02153 64.2317C6.05872 64.2718 6.09882 64.3062 6.14245 64.3346Z" fill="#719AEF"/>
<path fill-rule="evenodd" clip-rule="evenodd" d="M45.6365 16.1563C45.5706 16.0815 45.5047 16.0058 45.4387 15.9322C45.7207 15.8923 46.002 15.8525 46.1806 15.8272C46.3713 15.2803 46.5302 14.8172 46.6933 14.3566C46.8076 14.0347 46.9281 13.7169 47.046 13.3968C47.2209 13.5327 47.3965 13.6692 47.5711 13.8056C47.9646 14.3909 47.7057 14.5446 47.2302 14.6432C46.9863 14.6943 46.5375 14.7581 46.9548 15.2884L46.9551 15.2879C46.806 15.5281 46.6401 15.7561 46.5108 16.011C46.2574 16.5113 45.9644 16.4644 45.6365 16.1563Z" fill="#5A89EC"/>
<path fill-rule="evenodd" clip-rule="evenodd" d="M45.5588 15.4105C45.4483 15.0133 45.3371 14.6162 45.2266 14.2246C45.1751 14.2319 45.1301 14.2218 45.1112 14.2449C44.9318 14.4633 44.8744 15.0473 44.4924 14.699C44.1471 14.3842 44.5105 14.0745 44.6331 13.7795C44.6493 13.7393 44.6736 13.7043 44.694 13.6673C44.9024 13.737 45.1352 13.7584 45.3154 13.8876C45.6981 14.1616 45.9275 13.9744 46.1223 13.5759C46.1417 13.6961 46.1615 13.8165 46.1812 13.9362C45.9741 14.4273 45.7668 14.9188 45.5588 15.4105Z" fill="#5A89EC"/>
<path fill-rule="evenodd" clip-rule="evenodd" d="M46.1859 13.8827C46.1662 13.7633 46.1465 13.643 46.1271 13.5231C46.6227 12.8083 46.9969 12.6853 47.5127 13.1522C47.6144 13.2443 47.5683 13.5815 47.5903 13.8057C47.418 13.6709 47.2447 13.5359 47.0719 13.4008C46.7764 13.5617 46.4811 13.7222 46.1859 13.8827Z" fill="#B0C6F6"/>
<path fill-rule="evenodd" clip-rule="evenodd" d="M46.292 11.8982C46.5376 11.6873 46.7825 11.4757 47.0788 11.2207C47.2036 11.5302 47.3233 11.8275 47.4489 12.1376C47.3303 12.2489 47.2305 12.4062 47.172 12.3868C46.8753 12.2849 46.5892 12.1373 46.2995 12.0067C46.2991 12.0084 46.292 11.8982 46.292 11.8982Z" fill="#C7D7F9"/>
<path fill-rule="evenodd" clip-rule="evenodd" d="M45.2435 12.7913C45.2633 12.458 45.2829 12.1243 45.3027 11.791C45.4944 12.0615 45.6866 12.331 45.8786 12.6011C45.667 12.6639 45.4556 12.7275 45.2435 12.7913Z" fill="#BBCFF7"/>
<path fill-rule="evenodd" clip-rule="evenodd" d="M46.9435 15.2754C46.986 15.2686 47.0289 15.2614 47.071 15.2543C47.0554 15.269 47.0397 15.2962 47.024 15.2969C46.9976 15.2985 46.9708 15.2837 46.9435 15.2754Z" fill="#5A89EC"/>
<path fill-rule="evenodd" clip-rule="evenodd" d="M46.1605 13.8985C46.4601 13.7359 46.7599 13.573 47.0595 13.4104C46.9415 13.7317 46.8208 14.0499 46.7063 14.3721C46.5429 14.8324 46.3835 15.2964 46.1929 15.8443C46.0144 15.8699 45.7327 15.9098 45.45 15.9494C45.4768 15.762 45.5031 15.5754 45.5303 15.3883C45.7403 14.8916 45.9502 14.3948 46.1605 13.8985Z" fill="#80A4F1"/>
<path fill-rule="evenodd" clip-rule="evenodd" d="M43.7637 17.5586C43.8666 17.8397 43.9554 18.0825 44.0517 18.3446C43.657 18.0865 43.657 18.0865 43.7637 17.5586Z" fill="#5A89EC"/>
<path fill-rule="evenodd" clip-rule="evenodd" d="M30.569 44.1144C30.533 44.0437 30.497 43.973 30.4609 43.9023C30.4922 43.9763 30.5283 44.0478 30.569 44.1144Z" fill="#497DEB"/>
<path fill-rule="evenodd" clip-rule="evenodd" d="M5.64777 61.2939C5.53297 61.3785 5.4177 61.462 5.30326 61.5469C5.32947 61.2384 5.35502 60.93 5.38086 60.6211C5.46946 60.845 5.55843 61.0693 5.64777 61.2939Z" fill="#87AAF2"/>
<path fill-rule="evenodd" clip-rule="evenodd" d="M7.32163 65.0817C7.41917 65.0625 7.51745 65.044 7.61444 65.0258C7.5168 65.0442 7.41889 65.063 7.32163 65.0817Z" fill="#A6BFF5"/>
</svg>
