<svg width="31" height="52" viewBox="0 0 31 52" fill="none" xmlns="http://www.w3.org/2000/svg">
<path fill-rule="evenodd" clip-rule="evenodd" d="M18.9282 51.3741C18.6694 51.2008 18.3214 51.1084 18.1741 50.8311C17.9019 50.3343 17.7458 49.7278 17.5405 49.1617C17.7547 49.0693 17.951 48.7978 18.1251 49.3292C18.3616 50.0513 18.6828 50.1091 19.0889 49.6007C19.2138 49.4448 19.3343 49.2715 19.4102 49.0751C19.6377 48.5148 19.843 47.9429 20.0527 47.3711C20.1643 47.9891 20.0839 48.6534 20.6551 48.9653C21.1147 47.4519 20.6685 46.0136 20.4365 44.5869C20.3026 43.7666 19.9233 43.0099 19.6467 42.2359C19.4325 41.6294 19.1424 41.1326 18.5534 41.1557L18.5579 41.1615C18.5579 40.4626 18.5579 39.7579 18.5579 38.9492C18.1429 39.0358 17.7056 39.1282 17.2683 39.2149C17.1969 38.6661 17.13 38.1116 17.0586 37.5629C17.1389 37.2163 17.3576 36.7888 17.2728 36.5404C16.9694 35.6682 17.4201 34.8711 17.304 33.9989C17.2014 33.219 17.4334 32.3641 17.5137 31.5381C17.6298 30.3771 18.1518 29.4355 18.6025 28.4998C19.0264 27.616 19.0443 26.6918 19.1201 25.756C19.129 25.6347 18.8836 25.4788 18.7587 25.3401L18.7765 25.3575C18.8345 25.1206 18.897 24.8896 18.955 24.6527C19.428 24.9242 19.5217 24.1964 19.843 24.0924C20.2446 23.9654 20.133 23.6708 19.959 23.4339C19.843 23.278 19.6422 23.2202 19.4057 23.0758C19.6243 22.9314 19.7894 22.8159 19.9367 22.7177C19.8965 22.4751 19.8564 22.2613 19.8207 22.0418C20.1955 21.961 20.5703 21.8801 21.0522 21.7761C21.0924 22.4635 21.1281 23.0816 21.1683 23.7978C21.7706 23.4744 22.2302 24.4968 22.8371 23.9596C22.7836 24.2022 22.7746 24.6181 22.6675 24.6643C22.1812 24.8838 22.1142 25.2188 22.3284 25.7791C22.3641 25.8658 22.2347 26.0622 22.1856 26.2066C22.025 26.2181 21.8688 26.2297 21.7082 26.2355C21.7082 26.2932 21.7037 26.3452 21.7037 26.403C21.8644 26.4261 22.025 26.4492 22.1812 26.4723L22.1722 26.4665C22.025 26.8189 21.4628 26.6456 21.5431 27.2925C21.3735 27.9221 20.9719 28.65 21.0969 29.1583C21.2486 29.7706 21.1415 30.1518 21.021 30.6601C20.9362 31.024 20.9987 31.4457 20.9942 31.8385C20.9451 31.9771 20.8961 32.1158 20.8425 32.2544C20.6685 32.4219 20.4945 32.5894 20.3204 32.7569C20.4275 32.8725 20.5391 32.9938 20.6462 33.1093C20.6551 33.219 20.6596 33.3288 20.664 33.4385C20.6997 33.9873 20.1643 34.5707 20.7131 35.0906C20.7488 35.3332 20.722 35.6682 20.8336 35.8011C21.1281 36.1419 20.8158 36.217 20.731 36.4018C20.0706 36.887 20.0795 37.2105 20.78 37.8286C20.789 38.0943 20.7934 38.36 20.8024 38.6257C20.5703 38.695 20.3383 38.7701 20.1063 38.8394C20.1152 38.9203 20.1286 39.0012 20.1375 39.0878C20.3651 39.134 20.5926 39.186 20.8202 39.2322C20.8515 39.4517 20.8827 39.6712 20.9496 40.116C21.0701 39.7867 21.1192 39.6481 21.1727 39.5037C21.3334 39.4575 21.494 39.4113 21.6502 39.3651C21.7305 39.6885 21.8153 40.0062 21.8867 40.3297C21.9491 40.6128 21.9893 40.9074 22.0384 41.1962C22.0295 41.2539 22.0295 41.3117 22.0384 41.3695C21.9938 41.4734 21.9447 41.5716 21.9001 41.6756C21.726 42.0626 21.5565 42.4496 21.3691 42.8655C21.5208 42.9522 21.6948 43.0504 21.8688 43.1486C21.8287 43.3334 21.793 43.5125 21.7528 43.6973C21.6368 43.6973 21.5208 43.6973 21.4003 43.6973C21.3958 43.7551 21.3914 43.8186 21.3869 43.8764C21.5029 43.9053 21.6189 43.9399 21.735 43.9688C21.8019 44.171 21.9714 44.4251 21.9224 44.558C21.5922 45.4649 21.967 46.3718 21.8822 47.2671C21.726 47.3595 21.5654 47.4519 21.4048 47.5386C21.5743 47.6195 21.7439 47.7003 21.909 47.7812C21.9313 48.07 21.9581 48.353 21.9804 48.6419C22.0384 48.7805 22.0964 48.9191 22.1589 49.0578C22.083 49.283 22.0027 49.5025 21.9268 49.7278C21.9045 50.1148 21.8822 50.5018 21.8554 50.8831C21.851 51.5762 21.5832 51.2297 21.3646 51.0968C21.137 50.8195 20.9095 50.5365 20.6194 50.1841C20.5168 50.7271 20.4498 51.0622 20.3829 51.3972C20.3071 51.5589 20.2312 51.7206 20.1509 51.8882C19.5976 50.9639 19.5976 50.9639 18.9282 51.3741ZM21.2887 49.1386C21.1995 49.1733 21.1147 49.2079 21.0255 49.2426C21.0567 49.3004 21.1058 49.4043 21.1192 49.3986C21.204 49.3524 21.2798 49.283 21.3557 49.2253C21.4003 49.1791 21.4405 49.1328 21.4806 49.0809C21.4226 49.0982 21.3557 49.1213 21.2887 49.1386ZM21.2932 45.5169C21.3512 45.4187 21.4047 45.3205 21.4627 45.2281C21.4137 45.1876 21.3423 45.101 21.32 45.1183C21.253 45.1761 21.1995 45.2627 21.1549 45.3494C21.1504 45.3551 21.2307 45.4418 21.2932 45.5169Z" fill="#FFD25C"/>
<path fill-rule="evenodd" clip-rule="evenodd" d="M9.48213 34.2709C8.7905 33.8781 8.10332 33.4853 7.41169 33.0925C7.12611 32.8557 6.84053 32.6188 6.51479 32.3589C6.23368 32.8037 5.96596 32.8383 5.52421 32.5669C5.10477 32.3127 4.58716 32.5784 4.20787 33.0405C4.13202 33.0636 4.05618 33.0867 3.97586 33.1098C3.20391 32.1798 2.19544 31.8853 1.245 31.4405C1.09329 30.834 0.941601 30.2275 0.79435 29.6152C0.785426 29.4881 0.776502 29.361 0.767578 29.2282L0.85236 29.2744C1.28965 29.1877 1.72693 29.1069 1.9902 29.0549C2.43195 28.4426 2.79339 27.94 3.13251 27.4722C3.32438 27.6166 3.46715 27.8014 3.53409 27.761C3.69918 27.6743 3.81076 27.3971 3.97139 27.3393C4.28374 27.2296 4.61394 27.2238 4.93967 27.1776C4.97983 27.3509 5.01554 27.5241 5.08693 27.8418C5.4439 26.6635 5.47512 26.7212 6.26938 26.0339C6.58619 25.7566 7.15289 25.8028 7.19752 25.075C7.20198 24.9768 7.20645 24.8786 7.21092 24.7804C7.27339 24.6995 7.33585 24.6187 7.40278 24.5378C7.63482 24.3934 7.88915 24.2894 8.09441 24.1046C8.28182 23.9313 8.3889 23.5847 8.58524 23.4576C9.02253 23.1746 9.48213 22.9378 9.95512 22.7587C10.1515 22.6836 10.3924 22.8107 10.6155 22.8453C10.263 23.4114 9.9239 23.989 9.55354 24.532C9.20996 25.0403 8.5897 25.4678 8.52723 26.0223C8.42013 26.9407 7.47863 26.5826 7.47417 27.4606C7.47417 27.501 7.15736 27.5357 6.94764 27.5588C6.93425 27.553 6.96104 27.5646 6.98781 27.5761C6.97442 27.5415 6.96549 27.5068 6.94764 27.4837C6.93871 27.4722 6.91194 27.4722 6.89409 27.4722C6.89856 27.4953 6.90748 27.5241 6.9521 27.5646C7.13951 28.0325 7.29123 28.4888 7.40278 28.8296C7.78207 28.639 8.02749 28.5177 8.26844 28.3964C8.85744 28.3213 8.95114 28.8007 8.96007 29.517C8.74142 29.257 8.57185 29.0606 8.39337 28.8469C7.91146 30.0311 8.8039 30.5856 8.91099 31.4347C9.41968 31.1401 9.84803 30.8917 10.2362 30.6722C10.7048 31.0939 11.084 31.4289 11.4589 31.7639C11.4812 31.8506 11.5079 31.9315 11.5347 32.0123C11.2447 32.0585 10.9502 32.1105 10.562 32.1741C10.8386 32.8557 11.0394 33.3524 11.2358 33.8319C11.4856 33.8319 11.7177 33.8319 12.0122 33.8319C11.8694 34.681 12.0702 35.2355 12.6636 35.507C12.7172 35.5301 12.7172 35.7554 12.744 35.8825C12.3245 36.4197 11.9006 35.9287 11.4767 35.8998C11.3429 35.8998 11.209 35.8998 11.0707 35.8998C10.5397 34.1149 10.5397 34.1149 9.48213 34.2709Z" fill="#FFC93B"/>
<path fill-rule="evenodd" clip-rule="evenodd" d="M22.8367 23.9648C22.2299 24.5019 21.7703 23.4795 21.1679 23.803C21.1277 23.0868 21.092 22.4687 21.0519 21.7813C20.57 21.8853 20.1951 21.9662 19.8203 22.047L19.8292 22.0413C20.0033 21.7756 20.1773 21.5098 20.3513 21.2441C20.097 20.8398 19.5437 20.5799 20.0166 19.9503C20.1862 20.008 20.3379 20.06 20.4852 20.112C20.5878 20.216 20.6949 20.3199 20.8065 20.4355C21.1188 19.9734 21.4267 19.5113 21.7391 19.0549C21.8283 19.2744 21.922 19.4939 22.0112 19.7134C22.1094 19.4766 22.2433 19.2513 22.2968 18.9972C22.3281 18.847 22.2388 18.6448 22.2031 18.4715C22.3459 18.4831 22.4842 18.4889 22.627 18.5004C23.5998 18.5813 24.2111 17.7322 24.8759 17.0275C25.2508 16.6289 25.639 16.265 26.0227 15.8838C26.6831 16.8138 27.5265 16.1726 28.0976 16.2939C28.4323 16.7271 28.6598 17.0217 28.9543 17.4029C28.6822 17.5762 28.4412 17.7322 28.2002 17.8824C28.0351 18.0268 27.8209 18.125 27.7094 18.3214C27.3837 18.8817 27.0222 19.5113 26.6608 19.9156C26.2592 20.3719 25.8754 20.99 25.4515 21.2788C24.7197 21.7698 24.4654 22.4629 24.3226 23.3698C23.8273 23.572 23.332 23.7684 22.8367 23.9648Z" fill="#FFC632"/>
<path fill-rule="evenodd" clip-rule="evenodd" d="M18.55 41.156C19.139 41.1329 19.4291 41.6297 19.6432 42.2362C19.9199 43.016 20.2947 43.7669 20.433 44.5871C20.6651 46.0081 21.1113 47.4522 20.6517 48.9656C20.0805 48.6536 20.1608 47.9894 20.0493 47.3713C19.8351 47.9374 19.6298 48.515 19.4067 49.0753C19.3264 49.2717 19.206 49.445 19.0855 49.601C18.6794 50.1093 18.3537 50.0515 18.1216 49.3295C17.9521 48.8038 17.7557 49.0753 17.5371 49.162C17.3542 48.8962 17.1221 48.6594 16.9927 48.3533C16.5822 47.3713 16.2119 46.3662 15.8281 45.3669C16.435 45.4825 16.3056 44.5871 16.5911 44.3503C16.8187 44.4601 16.9838 44.5467 17.3586 44.7315C17.0686 44.0904 16.899 43.7091 16.7384 43.3452C16.9124 43.0564 17.073 42.7849 17.2247 42.5308C17.0552 42.2939 16.9392 42.1264 16.8187 41.9589C16.8142 41.7799 16.8053 41.6066 16.8009 41.4275C16.8856 41.1618 16.9883 40.9019 17.0418 40.6246C17.1355 40.1625 17.1935 39.6888 17.2649 39.2152C17.7022 39.1228 18.1395 39.0303 18.5545 38.9495C18.5545 39.7581 18.5545 40.4571 18.55 41.156C18.5366 41.1964 18.5188 41.2369 18.5009 41.2715C18.5188 41.2369 18.5366 41.1964 18.55 41.156Z" fill="#FFC632"/>
<path fill-rule="evenodd" clip-rule="evenodd" d="M15.9427 5.98359C15.974 6.05868 16.0008 6.13377 16.0231 6.21464C15.8 6.39949 15.5724 6.58433 15.3493 6.76917C15.3136 6.52079 15.2779 6.27241 15.202 5.76987C14.9522 6.33017 14.439 5.98937 14.3542 6.72296C14.7067 6.74607 15.0191 6.76917 15.3314 6.79228C15.2868 7.41612 14.8451 7.14464 14.5997 7.31215C14.3587 7.47966 14.2472 7.59519 14.4881 7.88401C14.2695 8.96996 14.2695 8.96996 14.9209 9.26455C14.9834 9.27033 15.0503 9.28188 15.1128 9.28766C14.8986 9.54182 14.6844 9.79598 14.4747 10.0444C15.2556 10.9628 15.2913 11.1939 14.9209 12.5917C14.7871 13.1 14.8585 13.3946 15.3404 13.1636C15.3404 13.3427 15.3404 13.5275 15.3404 13.7066C15.1128 13.7181 14.8808 13.7354 14.6532 13.747C14.3899 13.3311 14.1311 12.9152 13.8679 12.4935C13.6492 11.9737 13.4261 11.4538 13.2075 10.9339C12.9397 9.97504 12.7256 8.97574 12.382 8.06307C12.1812 7.53743 12.1857 6.79228 11.6413 6.53234C11.5967 6.25508 11.5565 5.98359 11.5119 5.70633C11.5386 5.60235 11.5654 5.49838 11.5877 5.3944C11.5431 5.22111 11.5253 5.02472 11.4539 4.87453C11.3735 4.7128 11.1594 4.59727 11.1504 4.44708C11.1192 3.93877 11.1504 3.42467 11.1549 2.91635C11.2798 2.74306 11.4092 2.56977 11.5342 2.39071C12.3195 2.1481 12.6943 3.35536 13.2967 3.23405C13.2833 3.58063 13.2298 3.87523 13.2744 4.14671C13.3636 4.66081 13.5109 5.16335 13.6314 5.67167C13.6046 5.68322 13.5734 5.69477 13.5555 5.7121C13.5421 5.72366 13.5421 5.75831 13.5377 5.7872C13.5689 5.74676 13.5957 5.70633 13.6269 5.66012C13.8634 5.63701 14.0954 5.61391 14.4524 5.57925C13.7519 4.59727 14.4747 3.99653 14.6621 3.27449C14.6666 3.25716 14.9521 3.36113 15.1039 3.40734C15.1039 3.98498 15.1039 4.56839 15.1039 5.14025C15.4028 5.44639 15.6705 5.7121 15.9427 5.98359Z" fill="#FFC93F"/>
<path fill-rule="evenodd" clip-rule="evenodd" d="M16.8177 41.9583C16.9382 42.1258 17.0542 42.2933 17.2238 42.5302C17.0721 42.7901 16.907 43.0558 16.7374 43.3446C16.8981 43.7085 17.0676 44.0898 17.3577 44.7309C16.9873 44.5461 16.8177 44.4652 16.5902 44.3497C16.3046 44.5923 16.434 45.4876 15.8272 45.3663C15.4613 44.6096 15.1087 43.8529 14.7339 43.1078C14.368 42.3858 13.9977 41.6637 13.605 40.9648C12.9089 39.7229 12.1905 38.5041 11.4855 37.2738C11.7844 36.8059 11.5212 36.3495 11.4766 35.8874C11.9005 35.9163 12.3244 36.4073 12.7438 35.8701C13.3373 36.7423 13.9263 37.6146 14.5465 38.5272C15.3363 38.1749 14.2118 37.5972 14.667 37.0658C14.8767 36.9849 15.2069 36.8521 15.5416 36.7192C15.2649 37.372 15.4077 37.7416 15.9833 37.8225C15.9833 38.2846 15.9833 38.7467 15.9878 39.203L15.9833 39.2088C15.8227 39.7576 15.6888 40.3063 15.9387 40.8724C16.1172 41.7908 16.3269 42.045 16.8177 41.9583ZM15.1266 40.6067C15.0998 40.5836 15.0686 40.5605 15.0418 40.5374C15.0686 40.5605 15.0998 40.5778 15.1266 40.6067C15.1578 40.624 15.189 40.6471 15.2158 40.6644C15.1846 40.6471 15.1534 40.624 15.1266 40.6067ZM15.3006 38.6716C15.2381 38.6601 15.1712 38.6543 15.1087 38.6427C15.1087 39.0297 15.1087 39.411 15.1087 39.798C15.1712 39.798 15.2337 39.798 15.3006 39.798C15.3006 39.4225 15.3006 39.0471 15.3006 38.6716Z" fill="#FFCD4C"/>
<path fill-rule="evenodd" clip-rule="evenodd" d="M13.2025 10.9336C13.4211 11.4535 13.6442 11.9733 13.8629 12.4932C13.7156 13.0939 13.5193 13.6831 13.4256 14.2954C13.1668 15.9705 12.9526 17.6514 12.7206 19.3323C12.2163 19.263 12.377 19.7598 12.3368 20.0833C12.2833 20.7995 12.0378 21.2559 11.4221 21.2154C11.3774 21.2097 11.3328 21.1981 11.2927 21.1865C11.2168 21.1692 11.141 21.1577 11.0651 21.1403C11.1008 20.3894 11.1008 20.3894 11.5693 20.1006C11.3908 19.5345 11.2213 18.98 11.0473 18.4197L11.0517 18.4139C11.4265 18.4139 11.8192 18.4428 11.4845 17.7034C11.4533 17.6399 11.6006 17.4435 11.663 17.3049C11.7567 17.2529 11.8549 17.1951 11.9486 17.1431C11.8638 17.1085 11.7835 17.0738 11.6987 17.0334C11.7523 16.8428 11.8103 16.6579 11.8638 16.4673C12.1405 16.398 12.5019 16.6752 12.783 15.907C12.3859 16.0399 12.1449 16.1149 11.904 16.1958C11.779 15.8435 11.6586 15.4911 11.5024 15.0521C11.3016 15.5489 11.1097 16.011 10.8375 16.681C10.4672 15.7915 10.0567 15.6297 9.548 15.9185C9.49445 15.4564 10.0299 14.9943 9.53906 14.538C9.61492 14.434 9.69078 14.3358 9.76663 14.2319C9.90942 14.3301 10.0522 14.4283 10.195 14.5265C10.2664 14.6189 10.3333 14.7113 10.4047 14.8037C10.5073 15.0868 10.6055 15.3756 10.6635 15.5373C10.9759 15.2774 11.2659 14.9712 11.5961 14.7748C11.9486 14.5611 11.9486 14.2839 11.8237 13.8968C11.5069 13.868 11.0606 14.203 11.0473 13.4116L11.0428 13.4174C11.1186 13.3308 11.1945 13.2383 11.2659 13.1517C11.4935 13.0593 11.721 12.9669 11.9531 12.8744C12.2788 12.5336 12.667 12.2852 12.6536 11.5805C12.6581 11.3726 13.0106 11.1531 13.2025 10.9336Z" fill="#FFF3D6"/>
<path fill-rule="evenodd" clip-rule="evenodd" d="M14.4885 7.88419C14.2476 7.60115 14.3636 7.47985 14.6001 7.31234C14.8455 7.14483 15.2828 7.41053 15.3319 6.79247L15.3497 6.76937C15.5728 6.58453 15.8004 6.39968 16.0235 6.21484C16.1395 6.31304 16.2555 6.40546 16.3715 6.50366C16.2957 6.64229 16.135 6.87912 16.1574 6.90222C16.5054 7.39898 16.4028 7.94195 16.3091 8.50225C16.2957 8.57734 16.492 8.7102 16.5902 8.81417C17.2818 9.96365 17.7057 11.3846 18.674 12.4301C18.7052 12.8402 18.7454 13.3832 18.7855 13.9262C18.5624 14.215 18.3393 14.5096 18.1207 14.7984C17.7771 14.7926 17.4335 14.7811 17.0944 14.7753C17.023 14.6829 16.9471 14.5905 16.8758 14.498C16.791 13.1637 16.0056 12.1933 15.7558 10.9283C15.6397 10.3449 15.3363 9.82502 15.1221 9.28205C15.0597 9.27627 14.9927 9.26472 14.9303 9.25894C14.9169 9.09143 14.8366 8.86038 14.8946 8.77374C15.3988 7.97661 14.9749 7.91307 14.4885 7.88419Z" fill="#FFDE8A"/>
<path fill-rule="evenodd" clip-rule="evenodd" d="M24.3223 23.3703C24.4651 22.4634 24.7194 21.7703 25.4512 21.2735C25.8795 20.9847 26.2633 20.3666 26.6604 19.9102C27.0174 19.5001 27.3788 18.8763 27.709 18.316C27.8206 18.1196 28.0348 18.0214 28.1999 17.877C28.4453 18.264 28.6862 18.651 28.8379 18.8878C29.1681 18.5932 29.4582 18.3391 29.7438 18.0849C29.8018 18.0965 29.8508 18.1196 29.9044 18.1542C29.9936 18.3622 30.0873 18.5759 30.1766 18.7838C29.476 19.8236 28.5256 20.563 27.9901 21.8049C27.2226 21.8916 26.8969 22.8678 26.2499 23.2375C25.8528 23.4627 25.5404 23.9364 25.1924 24.3003C25.0451 24.1963 24.8979 24.0981 24.7506 23.9942C24.6079 23.7862 24.4651 23.5783 24.3223 23.3703Z" fill="#FFD057"/>
<path fill-rule="evenodd" clip-rule="evenodd" d="M11.8701 16.4738C11.8166 16.6644 11.7586 16.8492 11.705 17.0398C11.7005 17.1323 11.6872 17.2189 11.6693 17.3113C11.6069 17.4442 11.4596 17.6406 11.4908 17.7099C11.8255 18.4492 11.4328 18.4204 11.058 18.4204C11.0446 18.3857 11.0402 18.3453 11.0223 18.3222C11.0089 18.3048 10.9821 18.3106 10.9643 18.3048C10.9955 18.3453 11.0268 18.3857 11.058 18.4261C11.232 18.9864 11.4061 19.541 11.5801 20.107C11.1116 20.3958 11.1116 20.3958 11.0759 21.1467C10.6921 21.1814 10.2682 21.9208 9.97815 20.9908C9.60779 21.3836 9.33114 21.9265 8.61719 21.476C9.06341 21.1294 9.70151 21.141 9.57657 20.3323C9.79521 19.5525 9.79521 19.5525 9.62564 18.6803C9.54979 19.2233 9.47393 19.7373 9.40254 20.2572C9.26421 20.3092 9.12588 20.3554 8.98756 20.4074C8.67967 19.8413 8.93846 19.2926 9.00093 18.7323C9.02324 18.5474 8.95185 18.3395 8.92061 18.1431C8.92954 17.9698 8.93846 17.7965 8.94738 17.6232C9.08125 17.6059 9.21513 17.5828 9.35346 17.5655C9.3133 16.9763 8.73768 16.3005 9.55426 15.925C10.063 15.6362 10.4734 15.798 10.8438 16.6875C11.1205 16.0174 11.3079 15.5554 11.5087 15.0586C11.6604 15.4976 11.7853 15.8499 11.9103 16.2023C11.9058 16.2947 11.8924 16.3871 11.8701 16.4738ZM10.1924 19.8933C10.8349 19.229 10.8349 19.229 10.286 18.7785C10.2548 19.1539 10.228 19.489 10.1924 19.8933Z" fill="#FFEAB3"/>
<path fill-rule="evenodd" clip-rule="evenodd" d="M7.2026 25.0804C7.15351 25.8082 6.59128 25.762 6.27446 26.0392C5.4802 26.7266 5.44898 26.6746 5.09201 27.8472C5.02062 27.5295 4.98491 27.3563 4.94476 27.183C4.62348 27.2292 4.28883 27.2407 3.97648 27.3447C3.81584 27.4025 3.69981 27.6797 3.53917 27.7664C3.46778 27.8068 3.325 27.622 3.13759 27.4776C2.79847 27.9454 2.4415 28.4422 1.99529 29.0603C1.73202 29.1123 1.29471 29.1989 0.857422 29.2798C0.910968 28.9448 0.960072 28.3209 1.01808 28.3209C1.5937 28.3036 1.77218 27.4718 2.12915 27.3447C2.84309 27.0905 3.33838 26.3569 4.10587 26.1952C5.11878 25.9815 5.73008 24.8724 6.35478 23.8269C6.61358 23.8904 6.88577 23.9655 7.15796 24.0349C7.23828 24.2024 7.32306 24.3757 7.40784 24.5489C7.34537 24.6298 7.2829 24.7107 7.21597 24.7916C7.21151 24.884 7.20706 24.9822 7.2026 25.0804Z" fill="#FFD464"/>
<path fill-rule="evenodd" clip-rule="evenodd" d="M13.6315 5.67188C13.5065 5.16356 13.3637 4.6668 13.2745 4.14694C13.2299 3.87545 13.2834 3.57508 13.2968 3.23428C12.6944 3.35558 12.3196 2.14834 11.5342 2.39094C11.2978 2.27542 11.0568 2.15989 10.8203 2.04437C10.9809 1.89418 11.1371 1.73822 11.2978 1.58804C11.3602 1.57649 11.4272 1.55916 11.4896 1.54761C11.918 1.61114 12.3464 1.66891 12.7747 1.73245C12.7837 1.6227 12.7926 1.51872 12.806 1.40897C12.9845 0.704266 13.3771 1.34544 13.6404 1.18948C13.7386 1.12016 13.8367 1.05662 13.9349 0.987305C14.1089 1.16059 14.2829 1.33388 14.4614 1.50717C14.5685 1.51872 14.6756 1.53605 14.7872 1.54761C15.0594 2.13101 15.6751 2.57001 15.2467 3.43645C15.2021 3.4249 15.153 3.41912 15.104 3.41335C14.9478 3.36714 14.6667 3.26316 14.6622 3.28049C14.4748 4.00253 13.7519 4.60326 14.4525 5.58523C14.0955 5.61989 13.8635 5.64299 13.627 5.6661L13.6315 5.67188Z" fill="#FFDB7E"/>
<path fill-rule="evenodd" clip-rule="evenodd" d="M7.40202 24.5428C7.31724 24.3753 7.23692 24.202 7.15214 24.0287C6.81749 22.7175 7.6608 22.3652 8.27211 21.776C8.29442 21.2561 8.31674 20.7247 8.33905 20.1875C8.50861 20.4994 8.6514 20.9269 8.98606 20.4012C9.12438 20.355 9.2627 20.303 9.39656 20.2568C9.45457 20.2799 9.51258 20.3088 9.57059 20.3377C9.69553 21.1464 9.05744 21.1348 8.61123 21.4814C9.32516 21.9319 9.60181 21.3832 9.97216 20.9962C10.2622 21.9262 10.6861 21.1868 11.0698 21.1521C11.1457 21.1695 11.2216 21.181 11.2974 21.1983C11.1055 21.568 11.0252 21.9377 11.3019 22.3016C11.1814 22.4171 11.0699 22.5384 10.9449 22.6424C10.8423 22.7291 10.7263 22.7868 10.6147 22.8561C10.3916 22.8215 10.1507 22.6944 9.95432 22.7695C9.4858 22.9486 9.02174 23.1796 8.58446 23.4684C8.38813 23.5955 8.28105 23.9421 8.09364 24.1154C7.88838 24.2944 7.63405 24.3984 7.40202 24.5428Z" fill="#FFD771"/>
<path fill-rule="evenodd" clip-rule="evenodd" d="M11.5071 5.70678C11.5517 5.98405 11.5919 6.25553 11.6365 6.5328C11.5161 6.70609 11.3956 6.87937 11.2751 7.04689C11.2751 7.23751 11.2796 7.42812 11.2796 7.61874L11.284 7.60719C11.0475 7.82091 11.0386 8.00575 11.3197 8.16749L11.4223 8.13283C11.5205 8.24258 11.6187 8.35811 11.7169 8.47363C11.583 8.82599 11.4491 9.17834 11.293 9.57691C10.8066 9.29965 10.5478 9.55958 10.4184 10.1141C10.1328 9.95237 9.86065 9.57691 9.54831 10.0448C9.1735 9.54225 9.11547 9.01661 9.36088 8.36388C9.50813 7.98265 9.51706 7.50899 9.58845 7.08154C9.71339 7.09887 9.83834 7.1162 9.96327 7.13931C9.90081 6.91403 9.84278 6.68876 9.78032 6.46926C9.71338 6.41727 9.65092 6.37106 9.58398 6.31907C9.78924 6.30174 9.99003 6.28441 10.1953 6.27286C10.7084 6.62522 10.8378 6.27286 10.8423 5.68945C11.0654 5.68945 11.284 5.70101 11.5071 5.70678Z" fill="#FFE39A"/>
<path fill-rule="evenodd" clip-rule="evenodd" d="M29.7449 18.0855C29.4593 18.3396 29.1737 18.5938 28.8391 18.8884C28.6873 18.6515 28.4464 18.2645 28.201 17.8775C28.4419 17.7216 28.6829 17.5714 28.9551 17.3981C28.6606 17.0169 28.4375 16.7281 28.0984 16.2891C27.5272 16.1678 26.6838 16.8031 26.0234 15.8789C26.2644 15.3533 26.6348 15.1396 27.0944 15.1685C27.2996 15.44 27.4469 15.4053 27.5227 15.0298C27.7414 15.0645 27.96 15.1049 28.1831 15.1396C28.3884 15.0703 28.5936 15.001 28.8034 14.9316C28.9685 15.1742 29.1336 15.4168 29.2987 15.6594C29.3611 15.7519 29.4191 15.8443 29.4771 15.9309C29.6512 15.9656 29.8252 16.0002 30.142 16.0696C29.9278 16.2544 29.8074 16.3584 29.6869 16.4623C29.6646 16.4277 29.6467 16.3815 29.6199 16.3642C29.5932 16.3526 29.5351 16.3584 29.5262 16.3815C29.4637 16.5663 29.4102 16.7569 29.3254 17.0284C29.5753 17.0515 29.7404 17.0631 29.91 17.0746C30.0483 17.2306 30.1822 17.3808 30.3205 17.5367C30.1866 17.5425 30.0528 17.5541 29.9234 17.5541C29.5485 17.5541 29.5352 17.7562 29.7449 18.0855Z" fill="#FFDB7E"/>
<path fill-rule="evenodd" clip-rule="evenodd" d="M21.0033 31.8448C21.0078 31.452 20.9408 31.0303 21.0256 30.6664C21.1461 30.1581 21.2532 29.7769 21.1015 29.1646C20.9765 28.6563 21.3781 27.9284 21.5477 27.2988C21.7396 27.345 21.9315 27.3855 22.1546 27.4375C22.0564 27.8014 21.985 28.0613 21.8467 28.5696C22.3107 28.3443 22.5919 28.2057 22.8774 28.0671C23.2835 28.8584 22.7213 29.5112 22.6766 30.2448C22.6454 30.7473 22.3643 31.2152 22.1947 31.7004C21.985 31.6137 21.8779 31.0188 21.5433 31.5271C21.4317 31.7062 21.1863 31.7466 21.0033 31.8448Z" fill="#FFDE8A"/>
<path fill-rule="evenodd" clip-rule="evenodd" d="M0.794271 29.6144C0.945984 30.2209 1.09767 30.8275 1.24492 31.4397C2.19536 31.8903 3.20382 32.1791 3.97577 33.1091C3.79728 33.5539 3.59201 33.733 3.23057 33.3344C3.07886 33.1669 2.89591 32.5604 2.61033 33.2073C2.55679 33.1842 2.51663 33.2131 2.49878 33.2824C2.43631 33.2478 2.3694 33.2304 2.30247 33.2246C2.23554 33.1207 2.18198 32.9878 2.0972 32.9185C1.59298 32.5026 1.07984 32.104 0.566699 31.6997C0.571161 31.2838 0.593456 30.8506 0.16063 30.7524C0.111547 30.1401 0.0624698 29.5335 0 28.7422C0.20972 28.9732 0.33912 29.1234 0.472984 29.2678C0.584537 29.3891 0.691643 29.4989 0.794271 29.6144Z" fill="#FFD464"/>
<path fill-rule="evenodd" clip-rule="evenodd" d="M9.54492 10.0506C9.85728 9.57694 10.1295 9.95817 10.4151 10.1199C10.8836 11.0326 10.8702 12.1127 11.0398 13.1293C11.0442 13.2333 11.0487 13.3315 11.0532 13.4297L11.0576 13.4239C10.7453 13.4239 10.4686 13.4875 10.424 13.9842C10.3526 14.1691 10.2812 14.3481 10.2098 14.533C10.067 14.4348 9.9242 14.3366 9.7814 14.2384C9.75017 13.7012 9.71895 13.164 9.68325 12.6268C9.67432 12.4939 9.60738 12.2976 9.64754 12.2456C10.2767 11.4542 9.64755 10.7726 9.54492 10.0506Z" fill="#FFFFFE"/>
<path fill-rule="evenodd" clip-rule="evenodd" d="M24.324 23.3704C24.4668 23.5783 24.6096 23.7863 24.7524 23.9942C24.3776 24.2715 24.739 24.5314 24.7613 24.7971C24.3552 24.9011 23.9626 25.0397 23.8153 25.6347C23.3736 25.2073 23.3022 25.8484 23.0835 26.0622L23.0389 26.1719C22.7533 26.2701 22.4678 26.3741 22.1777 26.4723L22.1867 26.4781C22.1911 26.3914 22.1911 26.299 22.1867 26.2124C22.2402 26.0679 22.3651 25.8716 22.3294 25.7849C22.1152 25.2246 22.1822 24.8896 22.6686 24.6701C22.7756 24.6238 22.7846 24.2079 22.8381 23.9653C23.3334 23.7689 23.8287 23.5725 24.324 23.3704ZM23.3825 24.6412C23.4361 24.6007 23.5074 24.5719 23.5342 24.5083C23.5521 24.4679 23.5119 24.3812 23.4941 24.3119C23.4405 24.3466 23.3602 24.3697 23.3423 24.4217C23.32 24.4794 23.3647 24.5719 23.3825 24.6412Z" fill="#FFE39A"/>
<path fill-rule="evenodd" clip-rule="evenodd" d="M18.1113 14.8041C18.3344 14.5153 18.5575 14.2207 18.7762 13.9319C18.8788 13.9954 18.9859 14.0532 19.0885 14.1167C18.919 14.5788 19.0707 14.781 19.4232 14.8157C19.6373 15.1738 19.9274 15.4973 20.0389 15.9016C20.1906 16.4446 20.1995 17.0511 20.2709 17.6287C19.5213 17.5074 18.8654 17.1897 18.5308 16.2135C18.5486 15.7687 18.5709 15.324 18.5932 14.8561C18.4103 14.8445 18.2675 14.8388 18.1247 14.8272L18.1113 14.8041Z" fill="#FFD464"/>
<path fill-rule="evenodd" clip-rule="evenodd" d="M20.28 17.6342C20.2086 17.0566 20.1997 16.4501 20.048 15.9071C19.9364 15.5028 19.6419 15.1793 19.4277 14.8212C19.5036 14.723 19.575 14.619 19.6508 14.5208C19.7178 14.5266 19.7758 14.5093 19.8383 14.4746C20.0167 14.6132 20.2488 14.6999 20.3603 14.8963C20.6593 15.445 20.9092 16.0457 21.2036 16.606C21.4312 16.993 20.3469 17.5822 21.3375 17.8768C21.3375 17.9635 21.342 18.0443 21.3464 18.131C21.2393 18.3331 21.1322 18.5411 21.101 18.5988C20.8511 18.645 20.6682 18.6797 20.4808 18.7144C20.338 18.697 20.1997 18.6739 20.0569 18.6566C20.1238 18.4025 20.1863 18.1425 20.2532 17.8884C20.2622 17.8017 20.2711 17.7151 20.28 17.6342Z" fill="#FFEEC1"/>
<path fill-rule="evenodd" clip-rule="evenodd" d="M9.55435 15.9245C8.73334 16.3 9.30893 16.97 9.35355 17.565C9.21969 17.5823 9.08582 17.5997 8.94749 17.6228C8.46559 17.3397 8.43438 16.8141 8.51916 16.2422C8.59055 15.757 8.68872 15.2776 8.80027 14.671C9.01891 14.6306 9.28216 14.5902 9.54542 14.5439C10.0362 15.0003 9.50081 15.4624 9.55435 15.9245Z" fill="#FFFFFE"/>
<path fill-rule="evenodd" clip-rule="evenodd" d="M4.20703 33.0457C4.58631 32.5835 5.10838 32.3178 5.52336 32.572C5.96511 32.8435 6.23282 32.8031 6.51394 32.364C6.83521 32.6298 7.12079 32.8666 7.41083 33.0977C6.98246 33.1497 6.54964 33.2826 6.12574 33.2364C5.48319 33.1613 4.86298 33.5541 4.22043 33.3346C4.21597 33.2364 4.21149 33.1381 4.20703 33.0457Z" fill="#FFD464"/>
<path fill-rule="evenodd" clip-rule="evenodd" d="M20.7274 35.1023C20.1785 34.5767 20.714 33.999 20.6783 33.4503C20.946 33.6351 21.2137 33.82 21.4815 34.0048C21.5618 33.7564 21.6644 33.4329 21.7715 33.1152C22.0972 33.947 21.9991 34.7846 21.7715 35.6164C21.1557 35.703 21.5172 34.7904 21.1289 34.5824C20.9951 34.7442 20.8612 34.9232 20.7274 35.1023Z" fill="#FFDE8A"/>
<path fill-rule="evenodd" clip-rule="evenodd" d="M22.1771 26.4722C22.4627 26.374 22.7483 26.2701 23.0383 26.1719C23.248 27.125 23.248 27.125 22.8822 28.0665C22.5966 28.2051 22.3155 28.3437 21.8514 28.569C21.9897 28.0607 22.0611 27.8008 22.1593 27.4369C21.9362 27.3849 21.7443 27.3387 21.5524 27.2982C21.4632 26.6513 22.0299 26.8304 22.1771 26.4722Z" fill="#FFEAB3"/>
<path fill-rule="evenodd" clip-rule="evenodd" d="M21.7654 33.1157C21.6628 33.4334 21.5601 33.7511 21.4753 34.0053C21.2121 33.8204 20.9399 33.6356 20.6722 33.4507C20.6632 33.341 20.6588 33.2312 20.6543 33.1215C20.7212 32.8384 20.7837 32.5496 20.8506 32.2666C20.8997 32.1279 20.9488 31.9893 21.0024 31.8507C21.1853 31.7525 21.4307 31.712 21.5467 31.5388C21.8814 31.0246 21.9885 31.6254 22.1982 31.712C22.2294 32.2666 22.167 32.7749 21.7654 33.1157Z" fill="#FFFFFE"/>
<path fill-rule="evenodd" clip-rule="evenodd" d="M11.1502 2.91649C11.1413 3.43057 11.1101 3.94465 11.1458 4.44718C11.1547 4.59736 11.3689 4.71288 11.4492 4.87461C11.5206 5.0248 11.5429 5.22119 11.5831 5.39447C11.3377 5.37714 11.0878 5.36559 10.8423 5.34826C10.7085 5.34248 10.5746 5.33671 10.4408 5.33093C10.4497 5.26162 10.4541 5.18653 10.4497 5.11721C10.4764 5.05945 10.4809 5.00169 10.4586 4.93815C10.9941 3.88111 10.994 3.88111 10.2266 3.43057C10.2444 2.89916 10.5746 2.95115 10.8423 2.88184C10.9405 2.89339 11.0476 2.90494 11.1502 2.91649Z" fill="#FFE39A"/>
<path fill-rule="evenodd" clip-rule="evenodd" d="M9.48242 34.2701C10.5399 34.1142 10.5399 34.1142 11.0709 35.8933C11.062 36.0897 11.0531 36.2803 11.0486 36.4767C10.5266 35.7374 10.0045 35.0038 9.48242 34.2701Z" fill="#FFCD4C"/>
<path fill-rule="evenodd" clip-rule="evenodd" d="M20.7266 35.1019C20.8604 34.9228 20.9943 34.7495 21.1237 34.582C21.5119 34.79 21.1505 35.7026 21.7663 35.616C21.7663 35.9048 21.7707 36.1994 21.7707 36.4882C21.4093 36.8983 21.0701 36.8232 20.7444 36.4131C20.8292 36.234 21.1416 36.1589 20.847 35.8124C20.7355 35.6795 20.7623 35.3445 20.7266 35.1019Z" fill="#FFFFFE"/>
<path fill-rule="evenodd" clip-rule="evenodd" d="M20.7436 36.4072C21.0694 36.8173 21.4085 36.8982 21.7699 36.4823C21.8368 36.7307 21.8993 36.9791 21.9662 37.2275C21.5736 37.4296 21.1854 37.6318 20.7927 37.8282C20.0921 37.2159 20.0788 36.8924 20.7436 36.4072Z" fill="#FFDB7E"/>
<path fill-rule="evenodd" clip-rule="evenodd" d="M15.0996 3.41333C15.1487 3.41911 15.1933 3.42488 15.2424 3.43644C15.4075 3.69059 15.577 3.95053 15.7466 4.21046C15.6663 4.29711 15.586 4.37798 15.5057 4.46462C15.5904 4.50506 15.6752 4.54549 15.76 4.58593C16.3847 4.92673 15.9429 5.49859 15.9429 5.97802C15.6707 5.71231 15.403 5.44082 15.0996 5.14623C15.0996 4.57437 15.0996 3.99096 15.0996 3.41333Z" fill="#FFE6A5"/>
<path fill-rule="evenodd" clip-rule="evenodd" d="M8.98676 20.4011C8.65208 20.9267 8.50928 20.4993 8.33971 20.1873C8.06304 19.2285 8.18351 18.7894 8.91535 18.1367C8.94658 18.3331 9.01801 18.5353 8.99569 18.7259C8.93768 19.2862 8.67885 19.835 8.98676 20.4011Z" fill="#FFFFFE"/>
<path fill-rule="evenodd" clip-rule="evenodd" d="M20.793 37.8342C21.1856 37.632 21.5738 37.4298 21.9665 37.2334C21.904 37.5222 21.846 37.811 21.7836 38.0999C21.0518 38.1923 21.1098 38.8508 21.1812 39.5151C21.1321 39.6537 21.0786 39.7982 20.9581 40.1274C20.8912 39.6826 20.8599 39.4631 20.8287 39.2436C20.8242 39.0414 20.8153 38.8393 20.8108 38.6371C20.8064 38.3714 20.8019 38.0999 20.793 37.8342Z" fill="#FFFFFE"/>
<path fill-rule="evenodd" clip-rule="evenodd" d="M16.5866 8.81446C16.4884 8.71048 16.2921 8.57763 16.3055 8.50253C16.3992 7.94222 16.5018 7.39923 16.1538 6.90246C16.1359 6.87358 16.2921 6.63674 16.3679 6.50388C16.5643 6.48078 16.7651 6.45767 17.0953 6.41724C16.9168 7.27215 16.7517 8.04619 16.5866 8.81446Z" fill="#FFFFFE"/>
<path fill-rule="evenodd" clip-rule="evenodd" d="M4.20822 33.0459C4.21268 33.1441 4.21716 33.2365 4.22162 33.3347C3.86019 34.3918 3.48535 34.5189 2.89635 33.7622C2.77587 33.612 2.70894 33.3982 2.61523 33.2134C2.90081 32.5664 3.08376 33.1787 3.23548 33.3405C3.59691 33.7391 3.7977 33.56 3.98065 33.1152C4.0565 33.0863 4.13236 33.069 4.20822 33.0459Z" fill="#FFFFFE"/>
<path fill-rule="evenodd" clip-rule="evenodd" d="M21.3429 18.1313C21.3385 18.0446 21.334 17.9637 21.334 17.8771C22.0658 17.4554 22.28 17.5594 22.6235 18.5009C22.4807 18.4894 22.3424 18.4836 22.1996 18.4721L22.1461 18.4316C22.1238 18.4316 22.1015 18.4316 22.0791 18.4316C21.9765 18.5991 21.8739 18.7666 21.7713 18.9399C21.6285 18.6684 21.4857 18.397 21.3429 18.1313Z" fill="#FFFFFE"/>
<path fill-rule="evenodd" clip-rule="evenodd" d="M21.8826 43.1596C21.7086 43.0614 21.5345 42.9632 21.3828 42.8765C21.5702 42.4606 21.7398 42.0736 21.9138 41.6865C22.5787 42.3508 22.5742 42.4895 21.8826 43.1596Z" fill="#FFFFFE"/>
<path fill-rule="evenodd" clip-rule="evenodd" d="M10.2275 3.43042C10.995 3.88101 10.995 3.88101 10.4596 4.93816C10.3391 4.71287 10.1562 4.49913 10.1205 4.25073C10.0803 3.99655 10.1829 3.70193 10.2275 3.43042Z" fill="#FFFFFE"/>
<path fill-rule="evenodd" clip-rule="evenodd" d="M21.1863 39.5149C21.1149 38.8506 21.0569 38.192 21.7887 38.0996C21.7485 38.5271 21.7084 38.9546 21.6682 39.3763C21.5031 39.4225 21.3469 39.4687 21.1863 39.5149Z" fill="#FFDB7E"/>
<path fill-rule="evenodd" clip-rule="evenodd" d="M10.4496 5.1176C10.4541 5.19269 10.4496 5.26201 10.4362 5.3371C10.3559 5.64902 10.2756 5.96094 10.1953 6.27286C9.99003 6.29018 9.78478 6.30174 9.58398 6.31906C9.59291 5.5797 9.77139 5.04251 10.4496 5.1176Z" fill="#FFFFFE"/>
<path fill-rule="evenodd" clip-rule="evenodd" d="M11.043 36.4769C11.0519 36.2863 11.0608 36.0899 11.0653 35.8936C11.1991 35.8936 11.333 35.8936 11.4713 35.8936C11.516 36.3556 11.7792 36.8177 11.4803 37.2798C11.3375 37.0084 11.1902 36.7426 11.043 36.4769Z" fill="#FFC737"/>
<path fill-rule="evenodd" clip-rule="evenodd" d="M11.1516 2.91688C11.049 2.90533 10.9419 2.89377 10.8393 2.88222C10.8303 2.60496 10.8214 2.32771 10.8125 2.04468C11.049 2.1602 11.2899 2.27572 11.5264 2.39125C11.406 2.57031 11.281 2.74359 11.1516 2.91688Z" fill="#FFD771"/>
<path fill-rule="evenodd" clip-rule="evenodd" d="M28.8038 14.931C28.5985 15.0004 28.3933 15.0697 28.1836 15.139C28.2818 14.4978 28.2818 14.4978 28.7681 14.1396C28.7815 14.4343 28.7904 14.6826 28.8038 14.931Z" fill="#FFFFFE"/>
<path fill-rule="evenodd" clip-rule="evenodd" d="M23.0781 26.0623C23.2968 25.8428 23.3681 25.2073 23.8099 25.6348C23.801 26.4435 23.3994 26.1431 23.0781 26.0623Z" fill="#FFD771"/>
<path fill-rule="evenodd" clip-rule="evenodd" d="M0.16856 30.7588C0.60585 30.857 0.579065 31.2902 0.574603 31.706C0.373807 32.0006 0.208706 31.9602 0.15516 31.5732C0.119463 31.3075 0.159636 31.0303 0.16856 30.7588Z" fill="#FFFFFE"/>
<path fill-rule="evenodd" clip-rule="evenodd" d="M19.838 14.4693C19.7799 14.504 19.7175 14.5155 19.6505 14.5155C19.5747 14.3943 19.4944 14.273 19.4141 14.1517C19.4899 14.0419 19.5658 13.9264 19.6461 13.8167C19.7086 14.0361 19.7755 14.2556 19.838 14.4693Z" fill="#FFFFFE"/>
<path fill-rule="evenodd" clip-rule="evenodd" d="M24.7602 24.7971C24.7379 24.5314 24.3765 24.2714 24.7513 23.9941C24.8985 24.0981 25.0458 24.1963 25.193 24.3003C25.0458 24.4678 24.903 24.6296 24.7602 24.7971Z" fill="#FFFFFE"/>
<path fill-rule="evenodd" clip-rule="evenodd" d="M29.7453 18.085C29.5356 17.7557 29.549 17.5535 29.9238 17.5593C30.0577 17.5593 30.1915 17.5478 30.3209 17.542C30.254 17.7211 30.1871 17.8944 30.1157 18.0735C30.0443 18.1024 29.9729 18.1255 29.9015 18.1543C29.8524 18.1197 29.7989 18.0966 29.7453 18.085Z" fill="#FFFFFE"/>
<path fill-rule="evenodd" clip-rule="evenodd" d="M19.4182 14.1509C19.4985 14.2722 19.5743 14.3935 19.6547 14.5148C19.5833 14.6129 19.5074 14.7169 19.4315 14.8151C19.079 14.7747 18.9273 14.5725 19.0969 14.1162C19.204 14.1278 19.3111 14.1393 19.4182 14.1509Z" fill="#FFDE8A"/>
<path fill-rule="evenodd" clip-rule="evenodd" d="M9.78174 6.46875C9.84421 6.69404 9.90224 6.91933 9.96472 7.13885C9.83977 7.12152 9.7148 7.10419 9.58984 7.08108C9.65232 6.8789 9.71926 6.67671 9.78174 6.46875Z" fill="#FFFFFE"/>
<path fill-rule="evenodd" clip-rule="evenodd" d="M29.9146 17.0801C29.7451 17.0685 29.58 17.0512 29.3301 17.0339C29.4104 16.7624 29.4639 16.5718 29.5309 16.387C29.5398 16.3639 29.5978 16.3523 29.6246 16.3697C29.6514 16.387 29.6692 16.4332 29.6915 16.4679C29.7674 16.67 29.8388 16.8779 29.9146 17.0801Z" fill="#FFFFFE"/>
<path fill-rule="evenodd" clip-rule="evenodd" d="M29.9043 18.1541C29.9757 18.1252 30.0471 18.1021 30.1185 18.0732C30.239 18.2061 30.3594 18.339 30.4799 18.4719C30.3773 18.5758 30.2747 18.6798 30.172 18.7838C30.0828 18.5758 29.9935 18.3679 29.9043 18.1541Z" fill="#FFDB7E"/>
<path fill-rule="evenodd" clip-rule="evenodd" d="M27.5221 15.0293C27.4418 15.4047 27.2945 15.4394 27.0938 15.1679C27.2365 15.1217 27.3793 15.0755 27.5221 15.0293Z" fill="#FFFFFE"/>
<path fill-rule="evenodd" clip-rule="evenodd" d="M17.9639 10.2813C17.9059 10.2467 17.8122 10.2294 17.7944 10.1774C17.7765 10.1196 17.8345 10.0272 17.8613 9.95215C17.9193 9.9868 18.013 10.0041 18.0308 10.0561C18.0487 10.1081 17.9907 10.2063 17.9639 10.2813Z" fill="#FFFFFE"/>
<path fill-rule="evenodd" clip-rule="evenodd" d="M15.7602 4.5913C15.6754 4.55086 15.5906 4.51042 15.5059 4.46999C15.5862 4.38334 15.6665 4.30247 15.7468 4.21582C15.7513 4.33713 15.7557 4.46421 15.7602 4.5913Z" fill="#FFFFFE"/>
<path fill-rule="evenodd" clip-rule="evenodd" d="M21.7523 43.9804C21.6363 43.9515 21.5203 43.9169 21.4043 43.888C21.4088 43.8303 21.4132 43.7667 21.4177 43.709C21.5337 43.709 21.6497 43.709 21.7701 43.709C21.7612 43.8014 21.7568 43.8938 21.7523 43.9804Z" fill="#FFFFFE"/>
<path fill-rule="evenodd" clip-rule="evenodd" d="M22.0516 41.3872C22.0427 41.3294 22.0427 41.2716 22.0516 41.2139C22.1052 41.2543 22.1587 41.2947 22.2123 41.3352C22.1587 41.3467 22.1052 41.3641 22.0516 41.3872Z" fill="#FFFFFE"/>
<path fill-rule="evenodd" clip-rule="evenodd" d="M2.30664 33.2307C2.37358 33.2365 2.44052 33.2538 2.50299 33.2885C2.47175 33.3463 2.44053 33.4041 2.40483 33.4618C2.37359 33.3809 2.34234 33.3058 2.30664 33.2307Z" fill="#FFFFFE"/>
<path fill-rule="evenodd" clip-rule="evenodd" d="M0.7948 29.6143C0.692163 29.4988 0.585059 29.3891 0.482422 29.2736C0.576134 29.262 0.669852 29.2447 0.768026 29.2332C0.776951 29.3602 0.785875 29.4873 0.7948 29.6143Z" fill="#FFFFFE"/>
<path fill-rule="evenodd" clip-rule="evenodd" d="M29.4773 15.9306C29.4148 15.8381 29.3568 15.7456 29.2988 15.6589C29.3568 15.7514 29.4148 15.8439 29.4773 15.9306Z" fill="#FFFFFE"/>
<path fill-rule="evenodd" clip-rule="evenodd" d="M16.4033 37.0086C16.622 37.1935 16.8406 37.3783 17.0548 37.5574C17.1262 38.1061 17.1931 38.6606 17.2645 39.2094C17.1931 39.6772 17.1307 40.1567 17.0414 40.6188C16.9879 40.896 16.8808 41.1559 16.8005 41.4216C16.5149 41.2426 16.2249 41.0577 15.9393 40.8787C15.6894 40.3126 15.8233 39.7639 15.9839 39.2151C16.0821 39.4346 16.1802 39.6599 16.3052 39.9372C16.4613 39.6599 16.564 39.4808 16.7202 39.2094C16.4033 39.2094 16.1981 39.2094 15.9884 39.2094C15.9884 38.7473 15.9884 38.2852 15.9839 37.8288L16.033 37.7653C16.506 37.7942 16.3721 37.3205 16.4167 36.9971L16.4033 37.0086Z" fill="#FFD771"/>
<path fill-rule="evenodd" clip-rule="evenodd" d="M20.8521 32.2598C20.7852 32.5428 20.7227 32.8316 20.6558 33.1146C20.5487 32.9991 20.4372 32.8778 20.3301 32.7623C20.5041 32.5948 20.6781 32.4273 20.8521 32.2598Z" fill="#FFDE8A"/>
<path fill-rule="evenodd" clip-rule="evenodd" d="M20.8152 38.6375C20.8242 38.8396 20.8286 39.0418 20.8331 39.244C20.6055 39.1978 20.3779 39.1458 20.1504 39.0996C20.1415 39.0187 20.1281 38.9378 20.1191 38.8512C20.3512 38.7761 20.5832 38.7068 20.8152 38.6375Z" fill="#FFDB7E"/>
<path fill-rule="evenodd" clip-rule="evenodd" d="M21.2928 45.5168C21.2303 45.4417 21.15 45.355 21.1545 45.3493C21.1991 45.2626 21.2526 45.1702 21.3196 45.1182C21.3419 45.1009 21.4133 45.1875 21.4623 45.2337C21.4088 45.3204 21.3508 45.4186 21.2928 45.5168Z" fill="#FFFFFE"/>
<path fill-rule="evenodd" clip-rule="evenodd" d="M22.1864 26.2119C22.1909 26.2985 22.1909 26.391 22.1864 26.4776C22.0258 26.4545 21.8652 26.4314 21.709 26.4083C21.709 26.3505 21.7135 26.2985 21.7135 26.2408C21.8696 26.235 22.0258 26.2235 22.1864 26.2119Z" fill="#FFEAB3"/>
<path fill-rule="evenodd" clip-rule="evenodd" d="M14.2111 33.7273C14.461 34.6227 15.0188 35.1772 15.5408 35.7721C15.7104 35.9628 15.8309 36.2285 15.9692 36.4595C15.8264 36.5462 15.6792 36.6328 15.5364 36.7195C15.2017 36.8523 14.8715 36.9852 14.6618 37.066C14.2066 37.6032 15.3311 38.1808 14.5413 38.5274C13.9166 37.609 13.3276 36.7368 12.7386 35.8703C12.7118 35.7375 12.7163 35.518 12.6583 35.4949C12.0648 35.2176 11.864 34.6689 12.0068 33.8198C11.7079 33.8198 11.4803 33.8198 11.2304 33.8198C11.0341 33.3403 10.8333 32.8436 10.5566 32.162C10.9448 32.0984 11.2349 32.0465 11.5294 32.0002C12.2969 32.058 12.8412 32.6356 13.3945 33.2537C13.6087 33.4963 13.9344 33.5772 14.2111 33.7273ZM14.1085 36.2342C13.9211 34.9692 13.9211 34.9692 13.3588 35.0039C13.6489 35.4718 13.8764 35.853 14.1085 36.2342Z" fill="#FFD569"/>
<path fill-rule="evenodd" clip-rule="evenodd" d="M10.6145 22.8504C10.7261 22.7811 10.8421 22.7233 10.9448 22.6367C11.0697 22.5327 11.1812 22.4114 11.3017 22.2959C11.4311 22.3132 11.565 22.3248 11.6989 22.3421C11.681 22.5385 11.7033 22.7522 11.6408 22.9197C11.324 23.7458 10.9894 24.5544 10.6101 25.5018C10.8555 25.4151 10.9537 25.3862 11.0518 25.3516C11.0385 25.7039 11.0831 26.0621 10.7083 26.2065C10.2353 26.3855 9.77568 26.6281 9.28485 26.8534C9.3964 27.0267 9.48118 27.1596 9.56596 27.2924C9.267 27.7025 9.01267 28.2397 8.45491 27.9682C8.43706 27.9567 8.32997 28.2455 8.26304 28.3957C8.01762 28.517 7.77667 28.6383 7.39739 28.8289C7.28584 28.4881 7.13413 28.0318 6.98242 27.5812C7.15198 27.5408 7.46877 27.5061 7.46877 27.4715C7.47324 26.5935 8.41473 26.9516 8.52182 26.0332C8.58875 25.4844 9.20454 25.057 9.54812 24.5429C9.92294 23.9884 10.262 23.4107 10.6145 22.8504ZM10.561 24.1732C10.5342 24.1732 10.5075 24.1732 10.4807 24.1732C10.4807 24.3176 10.4807 24.462 10.4807 24.6064C10.5075 24.6064 10.5342 24.6064 10.561 24.6064C10.561 24.462 10.561 24.3176 10.561 24.1732Z" fill="#FFDE8A"/>
<path fill-rule="evenodd" clip-rule="evenodd" d="M8.26351 28.3845C8.33044 28.2343 8.43306 27.9513 8.45537 27.9571C9.01313 28.2286 9.26746 27.6914 9.56196 27.2812C9.79845 27.3101 10.035 27.3448 10.2759 27.3737C10.0617 27.726 9.85199 28.0726 9.6155 28.4596C10.3116 29.1065 11.1594 29.4416 11.7528 30.2907C11.9983 30.643 12.2972 30.8972 12.1321 31.4517C11.9045 31.5499 11.677 31.6481 11.4494 31.7463C11.0746 31.4113 10.6998 31.0762 10.2268 30.6546C9.84306 30.8799 9.41025 31.1282 8.90158 31.417C8.79449 30.5622 7.90206 30.0134 8.38396 28.8293C8.56245 29.043 8.73201 29.2394 8.95065 29.4993C8.95065 28.7889 8.8525 28.3152 8.26351 28.3845Z" fill="#FFD771"/>
<path fill-rule="evenodd" clip-rule="evenodd" d="M11.4551 31.7518C11.6826 31.6536 11.9102 31.5554 12.1378 31.4572C12.9633 31.4109 13.4898 32.1445 14.0386 32.7511C14.1993 32.9244 14.1636 33.398 14.2171 33.733C13.9405 33.5771 13.6147 33.4962 13.3961 33.2536C12.8473 32.6413 12.2984 32.0579 11.531 32.0001C11.5042 31.9193 11.4774 31.8326 11.4551 31.7518Z" fill="#FFEAB3"/>
<path fill-rule="evenodd" clip-rule="evenodd" d="M7.20117 25.0808C7.20563 24.9825 7.21008 24.8843 7.21454 24.7861C7.21008 24.8786 7.20563 24.9825 7.20117 25.0808Z" fill="#FFD771"/>
<path fill-rule="evenodd" clip-rule="evenodd" d="M6.90651 27.5409C6.90204 27.5178 6.89313 27.4947 6.88867 27.4658C6.90652 27.4716 6.93328 27.4658 6.9422 27.4774C6.96004 27.5005 6.96898 27.5351 6.98236 27.5698C6.96006 27.564 6.93327 27.5525 6.90651 27.5409Z" fill="#FFDE8A"/>
<path fill-rule="evenodd" clip-rule="evenodd" d="M19.8254 22.042C19.1561 21.3431 18.3976 20.7423 17.8353 19.9105C17.0768 18.79 16.4521 17.5076 15.8051 16.26C15.5061 15.6823 14.8992 15.3358 14.9706 14.4693C15.573 14.452 15.631 14.3365 15.3365 13.7011C15.3365 13.5162 15.3365 13.3372 15.3365 13.1581C15.7827 13.135 15.9434 13.5682 16.0906 13.9957C16.2468 14.4462 16.5011 14.608 16.8626 14.504C16.934 14.5964 17.0099 14.6888 17.0812 14.7812C17.0723 14.891 17.0589 15.0007 17.05 15.1105C16.9474 15.1567 16.8447 15.2029 16.6038 15.3127C17.1973 15.665 17.6524 15.9307 18.1031 16.2022C18.3262 16.6816 18.5314 17.1726 18.7813 17.6289C19.0401 18.0968 19.3391 18.53 19.6202 18.9748C19.7362 19.125 19.8478 19.2809 19.9638 19.4311C19.995 19.1712 20.0262 18.917 20.053 18.6571C20.1958 18.6744 20.3341 18.6975 20.4769 18.7149C20.4769 19.1827 20.4769 19.6448 20.4769 20.1127C20.3297 20.0607 20.178 20.0087 20.0084 19.951C19.5354 20.5864 20.0887 20.8405 20.3431 21.2449C20.1735 21.5106 19.9995 21.7763 19.8254 22.042Z" fill="#FFCD4C"/>
<path fill-rule="evenodd" clip-rule="evenodd" d="M20.4805 20.1122C20.4805 19.6444 20.4805 19.1822 20.4805 18.7144C20.6634 18.6797 20.8463 18.645 21.1007 18.6046C21.1319 18.5411 21.239 18.3389 21.3461 18.1367C21.4889 18.4024 21.6317 18.6739 21.7745 18.9396L21.7388 19.0609C21.4264 19.523 21.1185 19.9852 20.8062 20.4415C20.6857 20.3202 20.5831 20.2162 20.4805 20.1122Z" fill="#FFD771"/>
<path fill-rule="evenodd" clip-rule="evenodd" d="M21.7344 19.0556L21.7701 18.9343C21.8727 18.7668 21.9753 18.5993 22.0779 18.426H22.1449L22.1984 18.4665C22.2341 18.6455 22.3234 18.8419 22.2921 18.9921C22.2386 19.2462 22.1047 19.4715 22.0066 19.7083C21.9173 19.4946 21.8236 19.2751 21.7344 19.0556Z" fill="#FFD361"/>
<path fill-rule="evenodd" clip-rule="evenodd" d="M15.9395 40.8838C16.225 41.0629 16.5151 41.2477 16.8006 41.4268C16.8051 41.6058 16.814 41.7849 16.8185 41.9582C16.3276 42.0448 16.1179 41.7907 15.9395 40.8838Z" fill="#FFE39A"/>
<path fill-rule="evenodd" clip-rule="evenodd" d="M18.5491 41.1553C18.5312 41.1957 18.5178 41.2362 18.5 41.2766C18.5178 41.2362 18.5357 41.2015 18.5535 41.1611L18.5491 41.1553Z" fill="#FFD25C"/>
<path fill-rule="evenodd" clip-rule="evenodd" d="M11.0348 13.1291C10.8653 12.1125 10.8787 11.0323 10.4102 10.1197C10.5396 9.56513 10.7983 9.3052 11.2847 9.58246C11.4364 9.18389 11.5748 8.83154 11.7086 8.47918C11.6997 8.2308 11.7845 7.85534 11.4141 8.13838L11.3115 8.17303C11.2981 7.98819 11.2892 7.79757 11.2758 7.61273L11.2713 7.62428C11.5346 7.43366 11.4721 7.24304 11.2669 7.05242C11.3874 6.87913 11.5078 6.70584 11.6283 6.53833C12.1727 6.79827 12.1682 7.54341 12.369 8.06906C12.7171 8.98172 12.9268 9.98103 13.1945 10.9399C13.0026 11.1594 12.6501 11.3789 12.6501 11.5926C12.659 12.2973 12.2753 12.5457 11.9451 12.8865C11.7176 12.9789 11.49 13.0714 11.2624 13.1638C11.1955 13.1522 11.1152 13.1407 11.0348 13.1291Z" fill="#FFEEC1"/>
<path fill-rule="evenodd" clip-rule="evenodd" d="M16.8669 14.5038C16.501 14.6078 16.2511 14.4518 16.0949 13.9955C15.9477 13.5738 15.787 13.1406 15.3408 13.158C14.8589 13.389 14.7831 13.0944 14.9169 12.5861C15.2873 11.1882 15.2516 10.9572 14.4707 10.0445C14.6849 9.79038 14.8991 9.542 15.1088 9.28784C15.3274 9.83659 15.6309 10.3565 15.7424 10.9341C15.9968 12.1991 16.7821 13.1637 16.8669 14.5038ZM15.4345 11.5926C15.4569 11.5753 15.497 11.5637 15.5015 11.5406C15.5104 11.5117 15.497 11.4655 15.4926 11.4308C15.4569 11.454 15.4211 11.4771 15.3899 11.5059C15.4033 11.529 15.4212 11.5637 15.4345 11.5926Z" fill="#FFD464"/>
<path fill-rule="evenodd" clip-rule="evenodd" d="M14.4878 7.88403C14.9787 7.91292 15.3981 7.98224 14.8805 8.77949C14.8225 8.86615 14.9028 9.10301 14.9162 9.26477C14.2647 8.96436 14.2647 8.96436 14.4878 7.88403Z" fill="#FFD464"/>
<path fill-rule="evenodd" clip-rule="evenodd" d="M15.3327 6.79192C15.0203 6.76882 14.7124 6.74571 14.3555 6.72261C14.4402 5.98903 14.9534 6.32982 15.2033 5.76953C15.2747 6.27206 15.3104 6.52044 15.3505 6.76882C15.3505 6.76304 15.3327 6.79192 15.3327 6.79192Z" fill="#FFDE8A"/>
<path fill-rule="evenodd" clip-rule="evenodd" d="M15.3356 13.707C15.6301 14.3366 15.572 14.4579 14.9697 14.4753C14.8626 14.2327 14.7555 13.9901 14.6484 13.7475C14.8805 13.7359 15.108 13.7186 15.3356 13.707Z" fill="#FFD569"/>
<path fill-rule="evenodd" clip-rule="evenodd" d="M10.8438 5.34863C11.0892 5.36596 11.3391 5.37751 11.5845 5.39484C11.5577 5.49881 11.5354 5.60279 11.5086 5.70676C11.29 5.70098 11.0713 5.68943 10.8482 5.68365C10.8438 5.57391 10.8438 5.46416 10.8438 5.34863Z" fill="#FFFFFE"/>
<path fill-rule="evenodd" clip-rule="evenodd" d="M13.6225 5.66577C13.5912 5.70618 13.5644 5.74659 13.5332 5.79278C13.5377 5.76968 13.5377 5.73505 13.551 5.71773C13.5734 5.69464 13.6001 5.68886 13.6269 5.67732L13.6225 5.66577Z" fill="#FFDB7E"/>
<path fill-rule="evenodd" clip-rule="evenodd" d="M15.5426 36.7257C15.6854 36.6391 15.8326 36.5524 15.9754 36.4658C16.3101 36.3965 16.4261 36.616 16.4038 37.0145L16.4172 36.9972C15.971 36.9857 15.904 37.2976 16.0334 37.7655L15.9844 37.829C15.4088 37.7481 15.266 37.3784 15.5426 36.7257Z" fill="#FFD771"/>
<path fill-rule="evenodd" clip-rule="evenodd" d="M15.3013 38.6715C15.3013 39.047 15.3013 39.4225 15.3013 39.798C15.2388 39.798 15.1719 39.798 15.1094 39.798C15.1094 39.4109 15.1094 39.0296 15.1094 38.6426C15.1763 38.6541 15.2388 38.6599 15.3013 38.6715Z" fill="#FFD771"/>
<path fill-rule="evenodd" clip-rule="evenodd" d="M15.127 40.6074C15.1582 40.6244 15.1894 40.6471 15.2206 40.6641C15.1894 40.6414 15.1582 40.6244 15.127 40.6074Z" fill="#FFD771"/>
<path fill-rule="evenodd" clip-rule="evenodd" d="M15.1263 40.6002C15.0951 40.5775 15.0683 40.5605 15.0371 40.5378C15.0683 40.5605 15.0951 40.5832 15.1263 40.6002Z" fill="#FFD771"/>
<path fill-rule="evenodd" clip-rule="evenodd" d="M11.0492 25.346C10.951 25.3807 10.8528 25.4096 10.6074 25.4962C10.9867 24.5547 11.3258 23.7402 11.6382 22.9142C11.7006 22.7467 11.6783 22.5272 11.6962 22.3366C11.6069 21.9611 11.5177 21.5914 11.4284 21.216C12.0442 21.2564 12.2852 20.7943 12.3432 20.0838C12.4815 20.078 12.6243 20.078 12.7626 20.0723C12.7626 20.6152 12.8028 21.1698 12.7537 21.707C12.7314 21.9669 12.544 22.2037 12.4815 22.3423C12.5618 22.7698 12.7581 23.2203 12.6823 23.5727C12.5573 24.1503 12.6912 25.063 11.8925 25.0803C11.6114 25.1669 11.3303 25.2594 11.0492 25.346Z" fill="#FFEEC1"/>
<path fill-rule="evenodd" clip-rule="evenodd" d="M10.4191 13.9839C10.4637 13.4813 10.7448 13.4236 11.0527 13.4236C11.0661 14.2149 11.5123 13.8857 11.8291 13.9088C11.954 14.2958 11.954 14.573 11.6015 14.7868C11.2713 14.9832 10.9813 15.2893 10.669 15.5492C10.611 15.3817 10.5083 15.0987 10.4102 14.8156C10.4102 14.5384 10.4146 14.2611 10.4191 13.9839ZM10.7716 14.3593C10.776 14.394 10.776 14.4344 10.7894 14.4517C10.8117 14.4748 10.8474 14.4691 10.8742 14.4749C10.8653 14.4229 10.8608 14.3709 10.8519 14.3189C10.8251 14.3304 10.7983 14.342 10.7716 14.3593Z" fill="#FFE39A"/>
<path fill-rule="evenodd" clip-rule="evenodd" d="M11.4276 21.2213C11.5168 21.5967 11.6061 21.9664 11.6953 22.3419C11.5615 22.3246 11.4321 22.313 11.2982 22.2957C11.0216 21.9318 11.1019 21.5621 11.2937 21.1924C11.3428 21.2039 11.383 21.2097 11.4276 21.2213Z" fill="#FFFDFA"/>
<path fill-rule="evenodd" clip-rule="evenodd" d="M11.8691 16.4737C11.8915 16.387 11.9049 16.2946 11.9138 16.2022C12.1547 16.1213 12.3957 16.0462 12.7928 15.9133C12.5072 16.6875 12.1458 16.4102 11.8691 16.4737Z" fill="#FFFDFA"/>
<path fill-rule="evenodd" clip-rule="evenodd" d="M12.7612 20.0722C12.6229 20.078 12.4801 20.078 12.3418 20.0838C12.382 19.7545 12.2213 19.2635 12.7255 19.3328C12.7344 19.5812 12.7478 19.8238 12.7612 20.0722Z" fill="#FFD361"/>
<path fill-rule="evenodd" clip-rule="evenodd" d="M10.4198 13.9834C10.4153 14.2606 10.4154 14.5379 10.4109 14.8094C10.3395 14.717 10.2726 14.6245 10.2012 14.5263C10.2726 14.3473 10.3439 14.1682 10.4198 13.9834Z" fill="#FFFFFE"/>
<path fill-rule="evenodd" clip-rule="evenodd" d="M11.2754 13.1581C11.503 13.0657 11.7305 12.9733 11.9581 12.8809C11.7305 12.9733 11.503 13.0657 11.2754 13.1581Z" fill="#FFE39A"/>
<path fill-rule="evenodd" clip-rule="evenodd" d="M11.668 17.3115C11.6858 17.2249 11.6947 17.1325 11.7036 17.04C11.7884 17.0747 11.8687 17.1094 11.9535 17.1498C11.8598 17.2018 11.7617 17.2596 11.668 17.3115Z" fill="#FFFDFA"/>
<path fill-rule="evenodd" clip-rule="evenodd" d="M11.0352 13.1289C11.1155 13.1405 11.1913 13.152 11.2717 13.1636C11.1958 13.2502 11.12 13.3427 11.0486 13.4294C11.0441 13.3311 11.0396 13.2271 11.0352 13.1289Z" fill="#FFE39A"/>
<path fill-rule="evenodd" clip-rule="evenodd" d="M17.0547 15.1106C17.0636 15.0008 17.077 14.891 17.0859 14.7812C17.4295 14.787 17.7731 14.7986 18.1122 14.8044L18.1301 14.8332C18.0319 14.9892 17.9337 15.2666 17.8311 15.2723C17.5768 15.2839 17.3135 15.1741 17.0547 15.1106Z" fill="#FFD464"/>
<path fill-rule="evenodd" clip-rule="evenodd" d="M10.1914 19.8932C10.2271 19.483 10.2539 19.1538 10.2851 18.7783C10.8339 19.2289 10.8339 19.2289 10.1914 19.8932Z" fill="#FFF3D6"/>
<path fill-rule="evenodd" clip-rule="evenodd" d="M9.57637 20.3325C9.51837 20.3036 9.46035 20.2805 9.40234 20.2517C9.47374 19.7376 9.54959 19.2235 9.62545 18.6748C9.79501 19.5528 9.79502 19.5528 9.57637 20.3325Z" fill="#FFFFFE"/>
<path fill-rule="evenodd" clip-rule="evenodd" d="M11.0527 18.4261C11.0214 18.3857 10.9902 18.3453 10.959 18.3049C10.9813 18.3107 11.0081 18.3049 11.017 18.3222C11.0393 18.3453 11.0482 18.3857 11.0527 18.4261Z" fill="#FFF3D6"/>
<path fill-rule="evenodd" clip-rule="evenodd" d="M10.8437 5.34814C10.8437 5.45789 10.8482 5.56764 10.8482 5.68317C10.8393 6.26659 10.7099 6.61895 10.2012 6.26659C10.2815 5.95466 10.3618 5.64274 10.4422 5.33081C10.576 5.33659 10.7099 5.34236 10.8437 5.34814Z" fill="#FFFFFE"/>
<path fill-rule="evenodd" clip-rule="evenodd" d="M11.2715 7.04688C11.4723 7.23748 11.5347 7.42231 11.276 7.61869C11.276 7.42809 11.2759 7.23748 11.2715 7.04688Z" fill="#FFD361"/>
<path fill-rule="evenodd" clip-rule="evenodd" d="M11.2796 7.60645C11.293 7.79129 11.3019 7.9819 11.3152 8.16674C11.0297 8.01079 11.0431 7.82017 11.2796 7.60645Z" fill="#FFD361"/>
<path fill-rule="evenodd" clip-rule="evenodd" d="M11.4141 8.13795C11.7844 7.85494 11.7041 8.23037 11.7086 8.47873C11.6149 8.36321 11.5122 8.24769 11.4141 8.13795Z" fill="#FFD361"/>
<path fill-rule="evenodd" clip-rule="evenodd" d="M23.3822 24.6409C23.3688 24.5658 23.3242 24.4791 23.342 24.4271C23.3644 24.3694 23.4402 24.352 23.4938 24.3174C23.5072 24.3809 23.5518 24.4734 23.5339 24.5138C23.5027 24.5716 23.4313 24.6004 23.3822 24.6409Z" fill="#FFD25C"/>
<path fill-rule="evenodd" clip-rule="evenodd" d="M19.6245 18.9748C19.3434 18.5242 19.0444 18.0968 18.7856 17.6289C18.5358 17.1726 18.3305 16.6758 18.1074 16.2021C18.2502 16.2079 18.393 16.2137 18.5358 16.2195C18.8704 17.1957 19.5264 17.5134 20.276 17.6347C20.2671 17.7213 20.2582 17.8022 20.2492 17.8888C19.803 17.8368 19.5442 17.9755 19.7628 18.6513C19.7896 18.7148 19.6781 18.865 19.6245 18.9748Z" fill="#FFE6A5"/>
<path fill-rule="evenodd" clip-rule="evenodd" d="M18.541 16.2136C18.3982 16.2079 18.2554 16.2021 18.1126 16.1963C17.6575 15.9306 17.2068 15.6591 16.6133 15.3068C16.8498 15.2028 16.9524 15.1566 17.0595 15.1046C17.3183 15.1681 17.5816 15.2779 17.8404 15.2605C17.943 15.2548 18.0412 14.9775 18.1394 14.8215C18.2822 14.8273 18.4205 14.8389 18.6079 14.8504C18.5811 15.3241 18.5588 15.7689 18.541 16.2136Z" fill="#FFDE8A"/>
<path fill-rule="evenodd" clip-rule="evenodd" d="M19.625 18.9748C19.6741 18.865 19.7901 18.7206 19.7678 18.6513C19.5492 17.9754 19.8035 17.8368 20.2542 17.8888C20.1872 18.143 20.1248 18.4029 20.0578 18.6571C20.0266 18.917 19.9954 19.1712 19.9686 19.4311C19.8526 19.2809 19.741 19.1249 19.625 18.9748Z" fill="#FFDB7E"/>
<path fill-rule="evenodd" clip-rule="evenodd" d="M11.0483 25.346C11.3294 25.2594 11.606 25.167 11.8871 25.0803C11.5971 26.1374 11.0304 26.8652 10.2763 27.3735C10.0398 27.3446 9.80332 27.3157 9.56237 27.2811C9.47759 27.1482 9.3928 27.0154 9.28125 26.8421C9.76762 26.6168 10.2272 26.3742 10.7047 26.1951C11.084 26.0565 11.0349 25.6984 11.0483 25.346Z" fill="#FFCE51"/>
<path fill-rule="evenodd" clip-rule="evenodd" d="M17.7676 29.1295C17.83 28.8523 17.888 28.5751 17.9505 28.2979C18.004 28.3152 18.0621 28.3267 18.1201 28.3441C18.0888 28.6271 18.0576 28.9158 18.0264 29.1988C17.9371 29.1757 17.8524 29.1526 17.7676 29.1295Z" fill="#FFD771"/>
<path fill-rule="evenodd" clip-rule="evenodd" d="M18.7586 25.3408C18.7452 25.5892 18.7363 25.8376 18.7229 26.0918C18.6559 26.0629 18.5845 26.034 18.5176 26.0051C18.6024 25.7914 18.6916 25.5777 18.7764 25.3639L18.7586 25.3408Z" fill="#FFD25C"/>
<path fill-rule="evenodd" clip-rule="evenodd" d="M15.9824 39.2148C16.1921 39.2148 16.3974 39.2148 16.7142 39.2148C16.5625 39.4863 16.4554 39.6654 16.2992 39.9426C16.1743 39.6654 16.0806 39.4401 15.9824 39.2148Z" fill="#FFCD4C"/>
<path fill-rule="evenodd" clip-rule="evenodd" d="M16.0273 37.7646C15.8979 37.291 15.9649 36.9849 16.4111 36.9964C16.3709 37.3199 16.5003 37.7935 16.0273 37.7646Z" fill="#FFF3D6"/>
<path fill-rule="evenodd" clip-rule="evenodd" d="M14.109 36.2345C13.877 35.8533 13.645 35.4721 13.3594 35.0043C13.9216 34.9696 13.9216 34.9696 14.109 36.2345Z" fill="#FFC93F"/>
<path fill-rule="evenodd" clip-rule="evenodd" d="M10.5608 24.1729C10.5608 24.3173 10.5608 24.4617 10.5608 24.6061C10.534 24.6061 10.5072 24.6061 10.4805 24.6061C10.4805 24.4617 10.4805 24.3173 10.4805 24.1729C10.5072 24.1729 10.534 24.1729 10.5608 24.1729Z" fill="#FFEEC1"/>
<path fill-rule="evenodd" clip-rule="evenodd" d="M15.4339 11.5924C15.4205 11.5635 15.4026 11.5346 15.3848 11.4999C15.4205 11.4768 15.4562 11.4537 15.4874 11.4248C15.4919 11.4595 15.5052 11.5057 15.4963 11.5346C15.4963 11.5635 15.4606 11.5751 15.4339 11.5924Z" fill="#FFDE8A"/>
<path fill-rule="evenodd" clip-rule="evenodd" d="M10.7715 14.3588C10.7983 14.3472 10.825 14.3299 10.8518 14.3184C10.8607 14.3703 10.8696 14.4223 10.8741 14.4743C10.8429 14.4685 10.8072 14.4685 10.7893 14.4512C10.7759 14.4339 10.7759 14.3877 10.7715 14.3588Z" fill="#FFF3D6"/>
</svg>
